<?xml version="1.0" encoding="utf-8"?>
<!-- Generator: Adobe Illustrator 24.2.1, SVG Export Plug-In . SVG Version: 6.00 Build 0)  -->
<svg version="1.1" id="Layer_1" xmlns="http://www.w3.org/2000/svg" xmlns:xlink="http://www.w3.org/1999/xlink" x="0px" y="0px"
	 viewBox="0 0 137 60" style="enable-background:new 0 0 137 60;" xml:space="preserve">
<style type="text/css">
	.st0{fill:#333333;}
</style>
<path class="st0" d="M60.2,30.9L60,30.7c-0.9-0.9-1.5-2.1-2.1-3.3c-0.5-1-1-2-1.6-2.8c-0.2-0.2-0.3-0.4-0.5-0.6
	c0.1-0.2,0.1-0.5,0.1-0.7c0.2-1.1,0.1-2.2,0-3.2c-0.1-1.3-0.2-2.6,0.1-3.9l0.1-0.2c0,0,0,0,0,0c0,0,0,0,0,0l-0.2,0
	c-1.3-0.3-2.4-1.1-3.4-1.8c-0.9-0.6-1.8-1.2-2.8-1.6c-0.2-0.1-0.5-0.2-0.7-0.2c-0.1-0.2-0.1-0.5-0.2-0.7c-0.4-1-1-1.9-1.6-2.8
	c-0.7-1.1-1.5-2.2-1.8-3.4l0-0.2c0,0,0,0,0,0c0,0,0,0,0,0L44.9,5c-1.3,0.3-2.6,0.2-3.9,0.2c-1.1-0.1-2.2-0.1-3.2,0
	c-0.2,0-0.5,0.1-0.7,0.1c-0.2-0.2-0.4-0.3-0.6-0.5c-0.8-0.7-1.8-1.2-2.8-1.6c-1.2-0.6-2.4-1.2-3.3-2.1l-0.2-0.2c0,0,0,0-0.1,0
	L30,1.1c-0.9,0.9-2.1,1.5-3.3,2.1c-1,0.5-2,1-2.8,1.6c-0.2,0.2-0.4,0.3-0.6,0.5c-0.2-0.1-0.5-0.1-0.7-0.1c-1.1-0.2-2.2-0.1-3.2,0
	c-1.3,0.1-2.6,0.2-3.9-0.1l-0.2-0.1c0,0,0,0,0,0c0,0,0,0,0,0l0,0.2c-0.3,1.3-1.1,2.4-1.8,3.4c-0.6,0.9-1.2,1.8-1.6,2.8
	c-0.1,0.2-0.2,0.5-0.2,0.7c-0.2,0.1-0.5,0.1-0.7,0.2c-1,0.4-1.9,1-2.8,1.6c-1.1,0.7-2.2,1.5-3.4,1.8l-0.2,0c0,0,0,0,0,0c0,0,0,0,0,0
	l0.1,0.2c0.3,1.3,0.2,2.6,0.2,3.9c-0.1,1.1-0.1,2.2,0,3.2c0,0.2,0.1,0.5,0.1,0.7c-0.2,0.2-0.3,0.4-0.5,0.6c-0.7,0.8-1.2,1.8-1.6,2.8
	c-0.6,1.2-1.2,2.4-2.1,3.3l-0.2,0.2c0,0,0,0,0,0s0,0,0,0l0.2,0.2c0.9,0.9,1.5,2.1,2.1,3.3c0.5,1,1,2,1.6,2.8
	c0.2,0.2,0.3,0.4,0.5,0.6c-0.1,0.2-0.1,0.5-0.1,0.7c-0.2,1.1-0.1,2.2,0,3.2c0.1,1.3,0.2,2.6-0.1,3.9l-0.1,0.2c0,0,0,0,0,0s0,0,0,0
	l0.2,0c1.3,0.3,2.4,1.1,3.4,1.8c0.9,0.6,1.8,1.2,2.8,1.6c0.2,0.1,0.5,0.2,0.7,0.2c0.1,0.2,0.1,0.5,0.2,0.7c0.4,1,1,1.9,1.6,2.8
	c0.7,1.1,1.5,2.2,1.8,3.4l0,0.2c0,0,0,0,0,0c0,0,0,0,0,0c0,0,0,0,0,0l0.2-0.1c1.3-0.3,2.6-0.2,3.9-0.2c1.1,0.1,2.2,0.1,3.2,0
	c0.2,0,0.5-0.1,0.7-0.1c0.2,0.2,0.4,0.3,0.6,0.5c0.8,0.7,1.8,1.2,2.8,1.6c1.2,0.6,2.4,1.2,3.3,2.1l0.2,0.2c0,0,0,0,0,0s0,0,0,0
	l0.2-0.2c0.9-0.9,2.1-1.5,3.3-2.1c1-0.5,2-1,2.8-1.6c0.2-0.2,0.4-0.3,0.6-0.5c0.2,0.1,0.5,0.1,0.7,0.1c1.1,0.2,2.2,0.1,3.2,0
	c1.3-0.1,2.6-0.2,3.9,0.1l0.2,0.1c0,0,0,0,0,0c0,0,0,0,0,0c0,0,0,0,0,0l0-0.2c0.3-1.3,1.1-2.4,1.8-3.4c0.6-0.9,1.2-1.8,1.6-2.8
	c0.1-0.2,0.2-0.5,0.2-0.7c0.2-0.1,0.5-0.2,0.7-0.2c1-0.4,1.9-1,2.8-1.6c1.1-0.7,2.2-1.5,3.4-1.8l0.2,0c0,0,0,0,0,0c0,0,0,0,0,0
	l-0.1-0.2c-0.3-1.3-0.2-2.6-0.2-3.9c0.1-1.1,0.1-2.2,0-3.2c0-0.2-0.1-0.5-0.1-0.7c0.2-0.2,0.3-0.4,0.5-0.6c0.7-0.8,1.2-1.8,1.6-2.8
	c0.6-1.2,1.2-2.4,2.1-3.3L60.2,30.9C60.2,30.9,60.2,30.9,60.2,30.9C60.2,30.9,60.2,30.9,60.2,30.9z M55.2,38.5c0.1,1,0.1,2.1,0,3.1
	c-0.1,1.2-0.2,2.5,0.1,3.7l0.1,0.2l-0.2,0c-1.2,0.3-2.3,1-3.3,1.7c-0.8,0.6-1.7,1.2-2.7,1.5c-0.1,0-0.1,0-0.2,0.1c0,0,0,0,0,0
	c0,0,0,0,0,0c-0.2,0.1-0.4,0.1-0.6,0.2c0,0-0.1,0-0.1,0c-2,0.5-4.3,0.2-6.4-0.9c-0.8-0.4-1.5-0.9-2.2-1.4c0,0,0,0,0,0c0,0,0,0,0,0
	c-0.2-0.1-0.3-0.2-0.4-0.3c0,0-0.1,0-0.1-0.1c-1.2-1-2.2-2-3-3c-0.4-0.5-0.9-1-1.3-1.6c0.1-0.4,0.2-0.9,0.3-1.4c0-0.4,0-0.8,0-1.1
	c0.3,0.2,0.6,0.4,1,0.6c0.4,0.2,0.9,0.4,1.3,0.5c0,0,0.1,0,0.1,0c0.1,0,0.3,0.1,0.4,0.1c0,0,0,0,0,0c0,0,0,0,0,0c0.2,0,0.3,0,0.5,0
	c0.2,0,0.3,0,0.5,0c0.2,0.2,0.4,0.4,0.5,0.6c0.7,0.8,1.8,1.9,3.1,2.6c0.8,0.4,1.6,0.6,2.4,0.6c0.5,0,1.1-0.1,1.5-0.3
	c0.5-0.2,0.9-0.5,1.3-0.7c0,0,0,0,0.1,0c0,0,0,0,0,0c0.1-0.1,0.2-0.1,0.3-0.2c0,0,0,0,0,0c0,0,0,0,0,0c0.4-0.3,0.9-0.5,1.3-0.6
	l0.1,0c0,0,0,0,0,0c0,0,0,0,0,0l0-0.1c-0.1-0.5-0.1-1-0.1-1.5c0,0,0,0,0,0c0,0,0,0,0,0c0-0.1,0-0.3,0-0.4c0,0,0,0,0,0
	c0,0,0-0.1,0-0.1c0-0.5,0.1-1,0-1.5c-0.2-1.2-1-2.4-2.2-3.2c-1.2-0.8-2.7-1.2-3.8-1.4c-0.3-0.1-0.5-0.1-0.8-0.1
	c-0.1-0.3-0.3-0.6-0.5-0.8c0.6-0.1,1.2-0.2,1.7-0.3c1.4-0.3,3.1-0.7,4.8-1.3c0.8,0.3,1.6,0.7,2.3,1.2c2,1.3,3.4,3.2,4,5.1
	c0,0,0,0.1,0,0.1c0.1,0.2,0.1,0.4,0.1,0.6c0,0,0,0,0,0c0,0,0,0,0,0C55.2,38.4,55.2,38.4,55.2,38.5z M36.3,56.2
	C36.3,56.2,36.3,56.2,36.3,56.2c-0.1,0.1-0.1,0.1-0.2,0.1c-0.8,0.6-1.7,1.1-2.7,1.5c-1.1,0.5-2.3,1.1-3.2,2L30.2,60l-0.1-0.1
	c-0.9-0.9-2-1.4-3.2-2c-0.9-0.4-1.9-0.9-2.7-1.5c0,0-0.1-0.1-0.1-0.1c0,0,0,0,0,0c0,0,0,0,0,0c-0.2-0.1-0.3-0.3-0.4-0.4
	c0,0,0,0-0.1-0.1c-1.4-1.5-2.3-3.6-2.5-6c-0.1-0.9,0-1.8,0.1-2.6c0,0,0,0,0-0.1c0,0,0,0,0-0.1c0-0.2,0.1-0.4,0.1-0.6
	c0,0,0-0.1,0-0.1c0.3-1.5,0.7-2.9,1.1-4.1c0.2-0.6,0.4-1.2,0.7-1.9c0.4-0.1,0.9-0.3,1.3-0.5c0.3-0.2,0.7-0.4,1-0.6
	c0,0.4,0,0.8,0,1.1c0,0.5,0.1,0.9,0.3,1.4c0,0,0,0.1,0,0.1c0,0.1,0.1,0.3,0.2,0.4c0,0,0,0,0,0c0,0,0,0,0,0c0.1,0.3,0.3,0.6,0.5,0.8
	c-0.1,0.3-0.2,0.5-0.3,0.8c-0.4,1.1-0.8,2.5-0.7,4c0.1,1.5,0.7,2.8,1.7,3.6c0.4,0.3,0.9,0.5,1.3,0.8c0,0,0,0,0.1,0c0,0,0,0,0,0
	c0.1,0.1,0.2,0.1,0.4,0.2c0,0,0,0,0,0c0,0,0,0,0,0c0.4,0.2,0.9,0.5,1.2,0.8l0.1,0.1c0,0,0,0,0,0s0,0,0,0l0.1-0.1
	c0.3-0.3,0.8-0.6,1.2-0.8c0,0,0,0,0,0c0,0,0,0,0,0c0.1-0.1,0.2-0.1,0.4-0.2c0,0,0,0,0,0c0,0,0,0,0.1,0c0.5-0.2,0.9-0.5,1.3-0.8
	c1-0.8,1.6-2.1,1.7-3.6c0.1-1.5-0.3-2.9-0.7-4c-0.1-0.3-0.2-0.5-0.3-0.8c0.2-0.2,0.3-0.5,0.5-0.8c0.4,0.5,0.8,0.9,1.1,1.3
	c1,1.1,2.1,2.3,3.5,3.4c0.1,0.8,0.1,1.7,0.1,2.6c-0.2,2.4-1,4.5-2.5,6c0,0,0,0-0.1,0.1C36.6,55.9,36.5,56.1,36.3,56.2
	C36.3,56.2,36.3,56.2,36.3,56.2z M11.1,48.8c-0.9-0.4-1.8-1-2.7-1.5c-1-0.7-2.1-1.4-3.3-1.7l-0.2,0L5,45.3c0.3-1.2,0.2-2.5,0.1-3.7
	c-0.1-1-0.1-2.1,0-3.1c0-0.1,0-0.1,0-0.2c0,0,0,0,0,0c0,0,0,0,0,0c0-0.2,0.1-0.4,0.1-0.6c0,0,0-0.1,0-0.1c0.6-2,2-3.8,4-5.1
	c0.7-0.5,1.5-0.9,2.3-1.2c0,0,0,0,0.1,0c0,0,0,0,0,0c0.2-0.1,0.3-0.1,0.5-0.2c0,0,0.1,0,0.1,0c1.4-0.5,2.9-0.9,4.1-1.1
	c0.6-0.1,1.3-0.2,2-0.4c0.3,0.3,0.7,0.6,1.1,0.9c0.3,0.2,0.7,0.4,1,0.6c-0.3,0.2-0.7,0.3-1,0.6c-0.4,0.3-0.7,0.6-1.1,0.9
	c0,0,0,0-0.1,0.1c-0.1,0.1-0.2,0.2-0.3,0.3c0,0,0,0,0,0c0,0,0,0,0,0c-0.2,0.3-0.3,0.5-0.5,0.8c-0.3,0-0.6,0.1-0.8,0.1
	c-1.1,0.2-2.5,0.6-3.8,1.4c-1.2,0.8-2,2-2.2,3.2c-0.1,0.5,0,1,0,1.5c0,0,0,0.1,0,0.1c0,0,0,0,0,0c0,0.1,0,0.3,0,0.4c0,0,0,0,0,0
	c0,0,0,0,0,0c0,0.5,0,1-0.1,1.5l0,0.1c0,0,0,0,0,0s0,0,0,0l0.1,0c0.5,0.1,0.9,0.4,1.3,0.6c0,0,0,0,0,0c0,0,0,0,0,0
	c0.1,0.1,0.2,0.1,0.3,0.2c0,0,0,0,0,0c0,0,0,0,0.1,0c0.4,0.3,0.9,0.6,1.3,0.7c0.5,0.2,1,0.3,1.5,0.3c0.8,0,1.6-0.2,2.4-0.6
	c1.3-0.7,2.3-1.7,3.1-2.6c0.2-0.2,0.4-0.4,0.5-0.6c0.2,0,0.3,0,0.5,0c0.1,0,0.3,0,0.5,0C22.2,41,22,41.5,21.9,42
	c-0.5,1.4-1,3-1.2,4.8c-0.7,0.5-1.4,1-2.2,1.4c-2.2,1.1-4.4,1.4-6.4,0.9c0,0-0.1,0-0.1,0c-0.2-0.1-0.4-0.1-0.6-0.2c0,0,0,0,0,0
	c0,0,0,0,0,0C11.2,48.8,11.2,48.8,11.1,48.8z M5.2,23.3c-0.1-1-0.1-2.1,0-3.1C5.2,19,5.3,17.7,5,16.5L5,16.3l0.2,0
	c1.2-0.3,2.3-1,3.3-1.7c0.8-0.6,1.7-1.2,2.7-1.5c0.1,0,0.1,0,0.2-0.1c0,0,0,0,0,0c0,0,0,0,0,0c0.2-0.1,0.4-0.1,0.6-0.2
	c0,0,0.1,0,0.1,0c2-0.5,4.3-0.2,6.4,0.9c0.8,0.4,1.5,0.9,2.2,1.4c0,0,0,0,0,0c0,0,0,0,0,0c0.2,0.1,0.3,0.2,0.4,0.3
	c0,0,0.1,0,0.1,0.1c1.2,1,2.2,2,3,3c0.4,0.5,0.9,1,1.3,1.6c-0.1,0.4-0.2,0.9-0.3,1.4c0,0.4,0,0.8,0,1.1c-0.3-0.2-0.6-0.4-1-0.6
	c-0.4-0.2-0.9-0.4-1.3-0.5c0,0-0.1,0-0.1,0c-0.1,0-0.3-0.1-0.4-0.1c0,0,0,0,0,0c0,0,0,0,0,0c-0.3,0-0.6,0-0.9,0
	c-0.2-0.2-0.4-0.4-0.5-0.6c-0.7-0.8-1.8-1.9-3.1-2.6c-1.3-0.7-2.8-0.8-3.9-0.3c-0.5,0.2-0.9,0.5-1.3,0.7c0,0,0,0-0.1,0c0,0,0,0,0,0
	c-0.1,0.1-0.2,0.1-0.3,0.2c0,0,0,0,0,0c0,0,0,0,0,0c-0.4,0.3-0.9,0.5-1.3,0.6l-0.1,0c0,0,0,0,0,0c0,0,0,0,0,0l0,0.1
	c0.1,0.5,0.1,1,0.1,1.5c0,0,0,0,0,0c0,0,0,0,0,0c0,0.1,0,0.3,0,0.4c0,0,0,0,0,0c0,0,0,0.1,0,0.1c0,0.5-0.1,1,0,1.5
	c0.2,1.2,1,2.4,2.2,3.2c1.2,0.8,2.7,1.2,3.8,1.4c0.3,0.1,0.5,0.1,0.8,0.1c0.1,0.3,0.3,0.6,0.5,0.8c-0.6,0.1-1.2,0.2-1.7,0.3
	c-1.4,0.3-3.1,0.7-4.8,1.3c-0.8-0.3-1.6-0.7-2.3-1.2c-2-1.3-3.4-3.2-4-5.1c0,0,0-0.1,0-0.1c-0.1-0.2-0.1-0.4-0.1-0.6c0,0,0,0,0,0
	c0,0,0,0,0,0C5.2,23.4,5.2,23.3,5.2,23.3z M24.1,5.6C24.1,5.6,24.1,5.5,24.1,5.6c0.1-0.1,0.1-0.1,0.2-0.1c0.8-0.6,1.7-1.1,2.7-1.5
	c1.1-0.5,2.3-1.1,3.2-2l0.1-0.1l0.1,0.1c0.9,0.9,2,1.4,3.2,2c0.9,0.4,1.9,0.9,2.7,1.5c0,0,0.1,0.1,0.1,0.1c0,0,0,0,0,0c0,0,0,0,0,0
	c0.2,0.1,0.3,0.3,0.4,0.4c0,0,0,0,0.1,0.1c1.4,1.5,2.3,3.6,2.5,6c0.1,0.9,0,1.8-0.1,2.6c-1.4,1.1-2.6,2.4-3.5,3.4
	c-0.4,0.4-0.8,0.9-1.1,1.3c-0.1-0.3-0.3-0.6-0.5-0.8c0.1-0.3,0.2-0.5,0.3-0.8c0.4-1.1,0.8-2.5,0.7-4c-0.1-1.5-0.7-2.8-1.7-3.6
	C33,10,32.5,9.8,32.1,9.6c0,0,0,0-0.1,0c0,0,0,0,0,0c-0.1-0.1-0.2-0.1-0.4-0.2c0,0,0,0,0,0c0,0,0,0,0,0c-0.4-0.2-0.9-0.5-1.2-0.8
	l-0.1-0.1c0,0,0,0,0,0s0,0,0,0l-0.1,0.1c-0.3,0.3-0.8,0.6-1.2,0.8c0,0,0,0,0,0c0,0,0,0,0,0c-0.1,0.1-0.2,0.1-0.4,0.2c0,0,0,0,0,0
	c0,0,0,0-0.1,0c-0.5,0.2-0.9,0.5-1.3,0.8c-1,0.8-1.6,2.1-1.7,3.6c-0.1,1.5,0.3,2.9,0.7,4c0.1,0.3,0.2,0.5,0.3,0.8
	c-0.2,0.2-0.3,0.5-0.5,0.8c-0.4-0.5-0.8-0.9-1.1-1.3c-1-1.1-2.1-2.3-3.5-3.4c-0.1-0.8-0.1-1.7-0.1-2.6c0.2-2.4,1-4.5,2.5-6
	c0,0,0,0,0.1-0.1C23.8,5.9,23.9,5.7,24.1,5.6C24.1,5.6,24.1,5.6,24.1,5.6z M49.3,13c0.9,0.4,1.8,1,2.7,1.5c1,0.7,2.1,1.4,3.3,1.7
	l0.2,0l-0.1,0.2c-0.3,1.2-0.2,2.5-0.1,3.7c0.1,1,0.1,2.1,0,3.1c0,0.1,0,0.1,0,0.2c0,0,0,0,0,0c0,0,0,0,0,0c0,0.2-0.1,0.4-0.1,0.6
	c0,0,0,0.1,0,0.1c-0.6,2-2,3.8-4,5.1c-0.7,0.5-1.5,0.9-2.3,1.2c0,0,0,0-0.1,0c0,0,0,0,0,0c-0.2,0.1-0.3,0.1-0.5,0.2c0,0-0.1,0-0.1,0
	c-1.4,0.5-2.9,0.9-4.1,1.1c-0.6,0.1-1.3,0.2-2,0.4c-0.3-0.3-0.7-0.6-1.1-0.9c-0.3-0.2-0.7-0.4-1-0.6c0.3-0.2,0.7-0.3,1-0.6
	c0.4-0.3,0.7-0.6,1.1-0.9c0,0,0,0,0.1-0.1c0.1-0.1,0.2-0.2,0.3-0.3c0,0,0,0,0,0c0,0,0,0,0,0c0.2-0.3,0.3-0.5,0.5-0.8
	c0.3,0,0.6-0.1,0.8-0.1c1.1-0.2,2.5-0.6,3.8-1.4c1.2-0.8,2-2,2.2-3.2c0.1-0.5,0-1,0-1.5c0,0,0-0.1,0-0.1c0,0,0,0,0,0
	c0-0.1,0-0.3,0-0.4c0,0,0,0,0,0c0,0,0,0,0,0c0-0.5,0-1,0.1-1.5l0-0.1c0,0,0,0,0,0c0,0,0,0,0,0l-0.1,0c-0.5-0.1-0.9-0.4-1.3-0.6
	c0,0,0,0,0,0c0,0,0,0,0,0c-0.1-0.1-0.2-0.1-0.3-0.2c0,0,0,0,0,0c0,0,0,0-0.1,0c-0.4-0.3-0.9-0.6-1.3-0.7c-1.2-0.5-2.6-0.4-3.9,0.3
	c-1.3,0.7-2.3,1.7-3.1,2.6c-0.2,0.2-0.4,0.4-0.5,0.6c-0.3,0-0.6,0-0.9,0c0,0,0,0,0,0c0,0,0,0,0,0c-0.1,0-0.3,0-0.4,0.1
	c0,0-0.1,0-0.1,0c-0.4,0.1-0.9,0.2-1.3,0.5c-0.3,0.2-0.7,0.4-1,0.6c0-0.4,0-0.8,0-1.1c0-0.5-0.1-0.9-0.3-1.4c0.4-0.5,0.8-1,1.3-1.6
	c0.8-0.9,1.8-2,3-3c0,0,0.1-0.1,0.1-0.1c0.1-0.1,0.3-0.2,0.4-0.3c0,0,0,0,0,0c0,0,0,0,0,0c0.7-0.5,1.4-1,2.2-1.4
	c1.5-0.7,3-1.1,4.5-1.1c0.7,0,1.3,0.1,1.9,0.2c0,0,0.1,0,0.1,0c0.2,0.1,0.4,0.1,0.6,0.2c0,0,0,0,0,0c0,0,0,0,0,0
	C49.2,13,49.2,13,49.3,13z M49.5,40C49.5,40,49.5,40,49.5,40C49.5,40.1,49.5,40.1,49.5,40c0,0.2,0,0.4,0,0.5c0,0,0,0,0,0
	c0,0,0,0,0,0c0,0.5,0,1,0.1,1.5l0,0.1l-0.1,0c-0.5,0.1-0.9,0.4-1.3,0.6c0,0,0,0,0,0c0,0,0,0,0,0C48,42.9,47.9,43,47.8,43
	c0,0,0,0,0,0c0,0,0,0-0.1,0c-0.4,0.3-0.9,0.6-1.3,0.7c-1.1,0.5-2.5,0.3-3.9-0.3c-1.3-0.6-2.3-1.7-3.1-2.5c-0.2-0.2-0.3-0.4-0.5-0.6
	c0.3,0,0.7-0.1,1-0.2c0.5-0.2,1-0.5,1.4-0.8c0,0,0.1-0.1,0.1-0.1c0,0,0,0,0,0c0,0,0,0,0,0c0.1-0.1,0.3-0.2,0.4-0.3
	c0,0,0.1,0,0.1-0.1c0.3-0.2,0.7-0.4,1-0.5l0.1,0c0,0,0,0,0,0c0,0,0,0,0,0l0-0.1c-0.1-0.4-0.1-0.7-0.1-1.1c0,0,0-0.1,0-0.1
	c0-0.2,0-0.3,0-0.5c0,0,0,0,0,0c0,0,0,0,0-0.1c0-0.1,0-0.1,0-0.2c0-0.5,0.1-1.1,0-1.6c0-0.3-0.1-0.6-0.3-0.9c0.2,0,0.5,0.1,0.7,0.1
	c1.1,0.2,2.5,0.6,3.7,1.4c1.2,0.8,2,2,2.2,3.2C49.6,38.9,49.5,39.5,49.5,40z M31.5,52.4C31.5,52.4,31.5,52.4,31.5,52.4
	c-0.5,0.2-0.9,0.5-1.3,0.9l-0.1,0.1l-0.1-0.1c-0.4-0.3-0.8-0.6-1.2-0.8c0,0,0,0,0,0c0,0,0,0,0,0c-0.1-0.1-0.2-0.1-0.4-0.2
	c0,0,0,0,0,0c0,0,0,0-0.1,0c-0.5-0.2-0.9-0.5-1.3-0.8c-1-0.8-1.6-2-1.7-3.5c-0.1-1.4,0.3-2.9,0.7-3.9c0.1-0.2,0.2-0.5,0.3-0.7
	c0.2,0.3,0.4,0.5,0.7,0.7c0.4,0.3,0.9,0.6,1.4,0.8c0,0,0.1,0,0.1,0.1c0,0,0,0,0,0c0,0,0,0,0,0c0.1,0.1,0.3,0.1,0.4,0.2
	c0,0,0.1,0,0.1,0.1c0.3,0.2,0.6,0.4,0.9,0.6l0.1,0.1c0,0,0,0,0,0s0,0,0,0l0.1-0.1c0.3-0.3,0.6-0.5,0.9-0.6c0,0,0.1,0,0.1-0.1
	c0.1-0.1,0.3-0.2,0.4-0.2c0,0,0,0,0,0c0,0,0,0,0,0c0,0,0.1,0,0.1-0.1c0.5-0.2,1-0.5,1.4-0.8c0.3-0.2,0.5-0.4,0.7-0.7
	c0.1,0.2,0.2,0.5,0.3,0.7c0.4,1.1,0.8,2.5,0.7,3.9c-0.1,1.5-0.7,2.7-1.7,3.5c-0.4,0.3-0.9,0.5-1.3,0.8c0,0,0,0-0.1,0c0,0,0,0,0,0
	C31.8,52.3,31.7,52.3,31.5,52.4C31.5,52.4,31.5,52.4,31.5,52.4z M12.6,43c-0.1-0.1-0.2-0.2-0.3-0.2c0,0,0,0,0,0c0,0,0,0,0,0
	c-0.4-0.3-0.9-0.5-1.3-0.6l-0.1,0l0-0.1c0.1-0.5,0.1-1,0.1-1.5c0,0,0,0,0,0c0,0,0,0,0,0c0-0.1,0-0.3,0-0.4c0,0,0,0,0,0
	c0,0,0-0.1,0-0.1c0-0.5-0.1-1,0-1.5c0.2-1.2,1-2.4,2.2-3.2c1.2-0.8,2.6-1.2,3.7-1.4c0.2,0,0.5-0.1,0.8-0.1c-0.1,0.3-0.2,0.6-0.3,1
	c-0.1,0.5,0,1.1,0,1.6c0,0.1,0,0.1,0,0.2c0,0,0,0,0,0.1c0,0,0,0,0,0c0,0.2,0,0.3,0,0.5c0,0,0,0.1,0,0.1c0,0.4,0,0.7-0.1,1.1l0,0.1
	c0,0,0,0,0,0c0,0,0,0,0,0l0.1,0c0.4,0.1,0.7,0.3,1,0.4c0,0,0.1,0,0.1,0.1c0.1,0.1,0.3,0.2,0.4,0.3c0,0,0,0,0,0c0,0,0,0,0,0
	c0,0,0.1,0.1,0.1,0.1c0.4,0.3,0.9,0.6,1.4,0.8c0.3,0.1,0.6,0.2,0.9,0.2c-0.2,0.2-0.3,0.4-0.5,0.6c-0.7,0.8-1.8,1.9-3.1,2.5
	c-1.3,0.6-2.7,0.8-3.9,0.3C13.5,43.6,13.1,43.4,12.6,43C12.7,43.1,12.6,43,12.6,43C12.6,43,12.6,43,12.6,43z M10.9,21.8
	C10.9,21.8,10.9,21.8,10.9,21.8C10.9,21.7,10.9,21.7,10.9,21.8c0-0.2,0-0.4,0-0.5c0,0,0,0,0,0c0,0,0,0,0,0c0-0.5,0-1-0.1-1.5l0-0.1
	l0.1,0c0.5-0.1,0.9-0.4,1.3-0.6c0,0,0,0,0,0c0,0,0,0,0,0c0.1-0.1,0.2-0.1,0.3-0.2c0,0,0,0,0,0c0,0,0,0,0.1,0
	c0.4-0.3,0.9-0.6,1.3-0.7c1.1-0.5,2.5-0.3,3.9,0.3c1.3,0.6,2.3,1.7,3.1,2.5c0.2,0.2,0.3,0.4,0.5,0.6c-0.3,0-0.7,0.1-1,0.2
	c-0.5,0.2-1,0.5-1.4,0.8c0,0-0.1,0.1-0.1,0.1c0,0,0,0,0,0c0,0,0,0,0,0c-0.1,0.1-0.3,0.2-0.4,0.3c0,0-0.1,0-0.1,0.1
	c-0.3,0.2-0.7,0.4-1,0.5l-0.1,0c0,0,0,0,0,0c0,0,0,0,0,0l0,0.1c0.1,0.4,0.1,0.7,0.1,1.1c0,0,0,0.1,0,0.1c0,0.2,0,0.3,0,0.5
	c0,0,0,0,0,0c0,0,0,0,0,0.1c0,0.1,0,0.1,0,0.2c0,0.5-0.1,1.1,0,1.6c0,0.3,0.1,0.6,0.3,0.9c-0.2,0-0.5-0.1-0.7-0.1
	c-1.1-0.2-2.5-0.6-3.7-1.4c-1.2-0.8-2-2-2.2-3.2C10.8,22.8,10.9,22.3,10.9,21.8z M28.9,9.4C28.9,9.4,28.9,9.4,28.9,9.4
	c0.5-0.2,0.9-0.5,1.3-0.9l0.1-0.1l0.1,0.1c0.4,0.3,0.8,0.6,1.2,0.8c0,0,0,0,0,0c0,0,0,0,0,0c0.1,0.1,0.2,0.1,0.4,0.2c0,0,0,0,0,0
	c0,0,0,0,0.1,0c0.5,0.2,0.9,0.5,1.3,0.8c1,0.8,1.6,2,1.7,3.5c0.1,1.5-0.3,2.9-0.7,3.9c-0.1,0.2-0.2,0.5-0.3,0.7
	c-0.2-0.3-0.4-0.5-0.7-0.7c-0.4-0.3-0.9-0.6-1.4-0.8c0,0-0.1,0-0.1-0.1c0,0,0,0,0,0c0,0,0,0,0,0c-0.1-0.1-0.3-0.1-0.4-0.2
	c0,0-0.1,0-0.1-0.1c-0.3-0.2-0.6-0.4-0.9-0.6l-0.1-0.1c0,0,0,0-0.1,0L30.1,16c-0.3,0.3-0.6,0.5-0.9,0.6c0,0-0.1,0-0.1,0.1
	c-0.1,0.1-0.3,0.2-0.4,0.2c0,0,0,0,0,0c0,0,0,0,0,0c0,0-0.1,0-0.1,0.1c-0.5,0.2-1,0.5-1.4,0.8c-0.3,0.2-0.5,0.4-0.7,0.7
	c-0.1-0.2-0.2-0.5-0.3-0.7c-0.4-1.1-0.8-2.5-0.7-3.9c0.1-1.5,0.7-2.7,1.7-3.5c0.4-0.3,0.9-0.5,1.3-0.8c0,0,0,0,0.1,0c0,0,0,0,0,0
	C28.6,9.5,28.7,9.5,28.9,9.4C28.9,9.4,28.9,9.4,28.9,9.4z M47.8,18.8c0.1,0.1,0.2,0.2,0.3,0.2c0,0,0,0,0,0c0,0,0,0,0,0
	c0.4,0.3,0.9,0.5,1.3,0.6l0.1,0l0,0.1c-0.1,0.5-0.1,1-0.1,1.5c0,0,0,0,0,0c0,0,0,0,0,0c0,0.1,0,0.3,0,0.4c0,0,0,0,0,0
	c0,0,0,0.1,0,0.1c0,0.5,0.1,1,0,1.5c-0.2,1.2-1,2.4-2.2,3.2c-1.2,0.8-2.6,1.2-3.7,1.4c-0.2,0-0.5,0.1-0.8,0.1c0.1-0.3,0.2-0.6,0.3-1
	c0.1-0.5,0-1.1,0-1.6c0-0.1,0-0.1,0-0.2c0,0,0,0,0-0.1c0,0,0,0,0,0c0-0.2,0-0.3,0-0.5c0,0,0-0.1,0-0.1c0-0.4,0-0.7,0.1-1.1l0-0.1
	c0,0,0,0,0,0c0,0,0,0,0,0l-0.1,0c-0.4-0.1-0.7-0.3-1-0.4c0,0-0.1,0-0.1-0.1c-0.1-0.1-0.3-0.2-0.4-0.3c0,0,0,0,0,0c0,0,0,0,0,0
	c0,0-0.1-0.1-0.1-0.1c-0.4-0.3-0.9-0.6-1.4-0.8c-0.3-0.1-0.6-0.2-0.9-0.2c0.2-0.2,0.3-0.4,0.5-0.6c0.7-0.8,1.8-1.9,3.1-2.5
	c0.8-0.4,1.6-0.6,2.4-0.6c0.5,0,1,0.1,1.5,0.3C46.9,18.1,47.3,18.4,47.8,18.8C47.7,18.7,47.8,18.7,47.8,18.8
	C47.8,18.8,47.8,18.8,47.8,18.8z M42.4,33.7c0.2,0.3,0.3,0.7,0.3,1c0.1,0.5,0,1,0,1.5c0,0,0,0,0,0c0,0,0,0,0,0c0,0,0,0,0,0
	c0,0.2,0,0.3,0,0.5c0,0,0,0.1,0,0.1c0,0.4,0,0.9,0.1,1.3l0,0.1l-0.1,0c-0.4,0.1-0.8,0.3-1.2,0.6c0,0-0.1,0-0.1,0.1
	c-0.1,0.1-0.3,0.2-0.4,0.3c0,0,0,0,0,0c0,0,0,0,0,0c0,0,0,0,0,0c-0.4,0.3-0.8,0.5-1.3,0.7c-0.3,0.1-0.7,0.2-1.1,0.2c0,0-0.1,0-0.1,0
	c-0.3,0-0.5,0-0.8,0c0,0,0,0,0,0c0,0,0,0,0,0c-0.1,0-0.3,0-0.4-0.1c0,0-0.1,0-0.1,0c-0.4-0.1-0.7-0.2-1.1-0.4
	c-0.4-0.2-0.8-0.4-1.1-0.7c0,0,0,0,0,0c0,0,0,0,0,0c-0.1,0-0.1-0.1-0.2-0.1c0,0-0.1-0.1-0.1-0.1c-0.6-0.5-1.1-1-1.5-1.4
	c-0.2-0.3-0.5-0.6-0.8-1c0,0,0,0,0-0.1c0,0,0,0,0-0.1c-0.2-0.3-0.4-0.5-0.6-0.8c0-0.1-0.1-0.1-0.1-0.2c-0.2-0.4-0.5-0.8-0.6-1.2
	c-0.1-0.3-0.3-0.7-0.4-1.1c0,0,0,0,0,0c0,0,0-0.1,0-0.1c0,0,0-0.1,0-0.1c0,0,0,0,0,0c0-0.1,0-0.2-0.1-0.4c0,0,0-0.1,0-0.1
	c0,0,0,0,0,0c0,0,0-0.1,0-0.1c0,0,0-0.1,0-0.1c0,0,0,0,0-0.1c0,0,0,0,0,0c0,0,0-0.1,0-0.1c0,0,0,0,0,0c0,0,0,0,0,0c0,0,0,0,0,0
	c0,0,0-0.1,0-0.1c0,0,0-0.1,0-0.1c0,0,0,0,0,0c0,0,0,0,0,0c0,0,0,0,0,0c0,0,0,0,0,0c0,0,0,0,0,0c0,0,0.1,0,0.1,0.1
	c0,0,0.1,0,0.1,0.1c0,0,0,0,0,0c0,0,0,0,0,0c0,0,0,0,0.1,0c0,0,0,0,0,0c0,0,0,0,0,0c0,0,0,0,0,0c0,0,0.1,0,0.1,0c0,0,0,0,0.1,0
	c0,0,0,0,0,0c0,0,0.1,0,0.1,0c0,0,0.1,0,0.1,0c0.2,0.1,0.3,0.1,0.5,0.2c0,0,0,0,0.1,0c0,0,0,0,0.1,0c0.2,0,0.4,0.1,0.6,0.1
	c0,0,0,0,0.1,0c0,0,0,0,0.1,0c0.1,0,0.2,0,0.4,0c0,0,0,0,0,0c0.1,0,0.2,0,0.3,0c0.2,0,0.5,0,0.7,0c0.4,0,0.8,0,1.2-0.1
	c0.1,0,0.1,0,0.2,0c0.3,0,0.6-0.1,0.8-0.1c0,0,0,0,0.1,0c0,0,0,0,0.1,0c0.3,0,0.5-0.1,0.8-0.1c0.7-0.1,1.5-0.3,2.4-0.7
	c0.4,0.2,0.8,0.4,1.1,0.6c0.3,0.2,0.6,0.5,0.9,0.8c0,0,0,0,0.1,0.1c0.1,0.1,0.2,0.2,0.3,0.3c0,0,0,0,0,0c0,0,0,0,0,0
	C42.1,33.1,42.2,33.4,42.4,33.7C42.4,33.6,42.4,33.7,42.4,33.7z M34.7,40.3c0,0.4-0.1,0.8-0.2,1.2c0,0,0,0.1,0,0.1
	c0,0.1-0.1,0.3-0.2,0.4c0,0,0,0,0,0c0,0,0,0,0,0c-0.1,0.3-0.2,0.5-0.4,0.7c0,0,0,0.1-0.1,0.1c-0.2,0.3-0.4,0.6-0.7,0.8
	c-0.4,0.3-0.8,0.5-1.3,0.7c0,0,0,0,0,0c0,0,0,0,0,0c0,0,0,0,0,0c-0.1,0.1-0.3,0.1-0.4,0.2c0,0-0.1,0-0.1,0c-0.4,0.2-0.7,0.4-1.1,0.7
	l0,0.1l0-0.1c-0.3-0.3-0.7-0.5-1.1-0.7c0,0-0.1,0-0.1,0c-0.1-0.1-0.3-0.1-0.4-0.2c0,0,0,0,0,0c0,0,0,0,0,0c0,0,0,0,0,0
	c-0.4-0.2-0.9-0.4-1.2-0.7c-0.3-0.2-0.5-0.5-0.7-0.8c0,0,0-0.1-0.1-0.1c-0.1-0.2-0.3-0.5-0.4-0.7c0,0,0,0,0,0c0,0,0,0,0,0
	c-0.1-0.1-0.1-0.3-0.1-0.4c0,0,0-0.1,0-0.1c-0.1-0.4-0.2-0.7-0.2-1.1c0-0.4,0-0.9,0-1.3c0,0,0,0,0-0.1c0,0,0,0,0-0.1
	c0-0.1,0-0.1,0-0.2c0,0,0-0.1,0-0.1c0.1-0.7,0.3-1.4,0.5-2c0.1-0.4,0.3-0.8,0.4-1.2c0,0,0,0,0-0.1c0,0,0,0,0-0.1
	c0.1-0.3,0.3-0.6,0.4-0.9c0-0.1,0.1-0.1,0.1-0.2c0.2-0.4,0.4-0.8,0.7-1.2c0.2-0.3,0.5-0.6,0.7-0.9c0,0,0,0,0,0c0,0,0.1-0.1,0.1-0.1
	c0,0,0.1,0,0.1-0.1c0,0,0,0,0,0c0.1-0.1,0.2-0.2,0.3-0.2c0,0,0.1,0,0.1-0.1c0,0,0,0,0,0c0,0,0.1,0,0.1-0.1c0,0,0.1,0,0.1-0.1
	c0,0,0,0,0.1,0c0,0,0,0,0,0c0,0,0,0,0.1,0c0,0,0,0,0,0c0,0,0,0,0,0c0,0,0,0,0,0c0,0,0.1,0,0.1,0c0,0,0.1,0,0.1,0c0,0,0,0,0,0
	c0,0,0,0,0,0c0,0,0,0,0,0c0,0,0,0,0,0c0,0,0,0,0,0.1c0,0,0,0.1,0,0.1c0,0,0,0.1,0,0.1c0,0,0,0,0,0c0,0,0,0,0,0c0,0,0,0,0,0.1
	c0,0,0,0,0,0c0,0,0,0,0,0c0,0,0,0,0,0c0,0,0,0.1,0,0.1c0,0,0,0.1,0,0.1c0,0,0,0,0,0c0,0,0,0.1,0,0.1c0,0,0,0.1,0,0.1
	c0,0.2,0.1,0.3,0.1,0.5c0,0,0,0,0,0.1c0,0,0,0,0,0.1c0.1,0.2,0.1,0.4,0.2,0.6c0,0,0,0,0,0.1c0,0,0,0,0,0.1c0,0.1,0.1,0.2,0.1,0.3
	c0,0,0,0,0,0c0,0.1,0.1,0.2,0.1,0.3c0.3,0.6,0.6,1.2,1,1.7c0,0,0.1,0.1,0.1,0.1c0.2,0.2,0.3,0.5,0.5,0.7c0,0,0,0,0,0.1
	c0,0,0,0,0,0.1c0.2,0.2,0.3,0.4,0.5,0.6c0.5,0.5,1.1,1.2,1.8,1.7C34.7,39.4,34.8,39.9,34.7,40.3z M19.4,39.1
	C19.3,39.1,19.3,39.1,19.4,39.1C19.3,39,19.3,39,19.4,39.1c-0.2-0.1-0.3-0.2-0.4-0.3c0,0-0.1,0-0.1-0.1c-0.4-0.2-0.7-0.4-1.2-0.5
	l-0.1,0l0-0.1c0.1-0.4,0.1-0.9,0.1-1.3c0,0,0-0.1,0-0.1c0-0.2,0-0.3,0-0.5c0,0,0,0,0,0c0,0,0,0,0,0c0,0,0,0,0-0.1c0-0.5-0.1-1,0-1.4
	c0.1-0.4,0.2-0.7,0.3-1c0,0,0-0.1,0-0.1c0.1-0.2,0.3-0.5,0.4-0.7c0,0,0,0,0,0c0,0,0,0,0,0c0.1-0.1,0.2-0.2,0.3-0.3c0,0,0,0,0.1-0.1
	c0.3-0.3,0.6-0.5,0.9-0.7c0.4-0.2,0.8-0.4,1.1-0.6c0,0,0,0,0.1,0c0,0,0,0,0,0c0.1,0,0.1-0.1,0.2-0.1c0,0,0.1,0,0.1,0
	c0.7-0.3,1.4-0.4,2-0.5c0.4-0.1,0.8-0.1,1.2-0.2c0,0,0,0,0.1,0c0,0,0.1,0,0.1,0c0.3,0,0.7-0.1,1-0.1c0.1,0,0.1,0,0.2,0
	c0.4,0,0.9,0,1.4,0c0.4,0,0.8,0.1,1.1,0.2c0,0,0,0,0,0c0,0,0.1,0,0.1,0c0,0,0.1,0,0.1,0c0,0,0,0,0,0c0.1,0,0.2,0.1,0.4,0.1
	c0,0,0.1,0,0.1,0c0,0,0,0,0,0c0,0,0.1,0,0.1,0c0,0,0.1,0,0.1,0.1c0,0,0,0,0.1,0c0,0,0,0,0,0c0,0,0,0,0.1,0c0,0,0,0,0,0c0,0,0,0,0,0
	c0,0,0,0,0,0c0,0,0,0,0.1,0.1c0,0,0,0,0.1,0.1c0,0,0,0,0,0c0,0,0,0,0,0c0,0,0,0,0,0c0,0,0,0,0,0c0,0,0,0-0.1,0c0,0-0.1,0-0.1,0
	c0,0-0.1,0-0.1,0.1c0,0,0,0,0,0c0,0,0,0,0,0c0,0,0,0,0,0c0,0,0,0,0,0c0,0,0,0,0,0c0,0,0,0,0,0c0,0-0.1,0-0.1,0.1c0,0,0,0-0.1,0
	c0,0,0,0,0,0c0,0-0.1,0-0.1,0.1c0,0-0.1,0.1-0.1,0.1c-0.1,0.1-0.3,0.2-0.4,0.4c0,0,0,0,0,0.1c0,0,0,0,0,0.1
	c-0.1,0.1-0.3,0.3-0.4,0.4c0,0,0,0,0,0.1c0,0,0,0,0,0.1c-0.1,0.1-0.1,0.2-0.2,0.3c0,0,0,0,0,0c-0.1,0.1-0.1,0.2-0.2,0.3
	c-0.4,0.5-0.7,1.1-0.9,1.7c0,0.1,0,0.1-0.1,0.1c-0.1,0.3-0.2,0.5-0.3,0.8c0,0,0,0,0,0.1c0,0,0,0,0,0.1c-0.1,0.3-0.2,0.5-0.3,0.7
	c-0.2,0.7-0.5,1.5-0.6,2.4c-0.3,0.3-0.7,0.5-1.1,0.7c-0.4,0.2-0.7,0.3-1.1,0.4c0,0-0.1,0-0.1,0C23,40,22.8,40,22.7,40c0,0,0,0,0,0
	c0,0,0,0,0,0c-0.3,0-0.5,0-0.8,0c0,0-0.1,0-0.1,0c-0.4,0-0.7-0.1-1-0.2C20.2,39.6,19.8,39.4,19.4,39.1
	C19.4,39.1,19.4,39.1,19.4,39.1z M18.8,29.3c-0.1-0.1-0.2-0.2-0.3-0.3c0,0,0,0,0,0c0,0,0,0,0,0c-0.2-0.2-0.3-0.5-0.4-0.7
	c0,0,0-0.1,0-0.1c-0.2-0.3-0.3-0.7-0.3-1c-0.1-0.5,0-1,0-1.5c0,0,0,0,0,0c0,0,0,0,0,0c0,0,0,0,0,0c0-0.2,0-0.3,0-0.5
	c0,0,0-0.1,0-0.1c0-0.4,0-0.9-0.1-1.3l0-0.1l0.1,0c0.4-0.1,0.8-0.3,1.2-0.6c0,0,0.1,0,0.1-0.1c0.1-0.1,0.3-0.2,0.4-0.3c0,0,0,0,0,0
	c0,0,0,0,0,0c0,0,0,0,0,0c0.4-0.3,0.8-0.5,1.3-0.7c0.3-0.1,0.7-0.2,1.1-0.2c0,0,0.1,0,0.1,0c0.3,0,0.5,0,0.8,0c0,0,0,0,0,0
	c0,0,0,0,0,0c0.1,0,0.3,0,0.4,0.1c0,0,0.1,0,0.1,0c0.4,0.1,0.7,0.2,1.1,0.4c0.4,0.2,0.8,0.4,1.1,0.7c0.1,0.9,0.4,1.7,0.6,2.4
	c0.1,0.2,0.2,0.4,0.2,0.6c0,0,0,0,0,0.1c0,0,0,0,0,0.1c0.1,0.3,0.2,0.5,0.3,0.8c0,0.1,0,0.1,0.1,0.2c0.2,0.5,0.4,0.9,0.7,1.3
	c0.1,0.1,0.1,0.2,0.2,0.4c0.1,0.1,0.1,0.2,0.2,0.3c0.1,0.1,0.2,0.2,0.2,0.3c0,0,0,0,0,0.1c0,0,0,0,0,0.1c0.1,0.2,0.3,0.3,0.4,0.5
	c-0.2,0-0.4-0.1-0.6-0.1c0,0,0,0-0.1,0c0,0,0,0-0.1,0c-0.1,0-0.2,0-0.4,0c0,0,0,0,0,0c-0.1,0-0.2,0-0.3,0c-0.7,0-1.3,0-1.9,0
	c-0.1,0-0.1,0-0.2,0c-0.3,0-0.6,0.1-0.8,0.1c0,0,0,0-0.1,0c0,0,0,0-0.1,0c-0.3,0-0.5,0.1-0.8,0.1c-0.7,0.1-1.5,0.3-2.4,0.7
	c-0.4-0.2-0.8-0.4-1.1-0.6C19.4,29.9,19.1,29.6,18.8,29.3C18.9,29.3,18.8,29.3,18.8,29.3z M25.7,21.5c0-0.4,0.1-0.8,0.2-1.2
	c0,0,0-0.1,0-0.1c0-0.1,0.1-0.3,0.2-0.4c0,0,0,0,0,0c0,0,0,0,0,0c0.1-0.3,0.2-0.5,0.4-0.7c0,0,0-0.1,0.1-0.1
	c0.2-0.3,0.4-0.6,0.7-0.8c0.4-0.3,0.8-0.5,1.3-0.7c0,0,0,0,0,0c0,0,0,0,0,0c0,0,0,0,0,0c0.1-0.1,0.3-0.1,0.4-0.2c0,0,0.1,0,0.1,0
	c0.4-0.2,0.7-0.4,1.1-0.7l0-0.1l0,0.1c0.3,0.3,0.7,0.5,1.1,0.7c0,0,0.1,0,0.1,0c0.1,0.1,0.3,0.1,0.4,0.2c0,0,0,0,0,0c0,0,0,0,0,0
	c0,0,0,0,0,0c0.4,0.2,0.9,0.4,1.2,0.7c0.3,0.2,0.5,0.5,0.7,0.8c0,0,0,0.1,0.1,0.1c0.1,0.2,0.3,0.5,0.4,0.7c0,0,0,0,0,0c0,0,0,0,0,0
	c0.1,0.1,0.1,0.3,0.1,0.4c0,0,0,0.1,0,0.1c0.1,0.4,0.2,0.7,0.2,1.1c0,0.4,0,0.9,0,1.3c0,0,0,0,0,0.1c0,0,0,0,0,0.1
	c0,0.1,0,0.1,0,0.2c0,0,0,0.1,0,0.1c-0.1,0.7-0.3,1.4-0.5,2c-0.1,0.4-0.3,0.8-0.4,1.2c0,0,0,0,0,0.1c0,0,0,0,0,0.1
	c-0.1,0.3-0.3,0.6-0.4,0.9c0,0.1-0.1,0.1-0.1,0.2c-0.2,0.4-0.4,0.8-0.7,1.2c-0.2,0.3-0.5,0.6-0.7,0.9c0,0,0,0,0,0
	c0,0-0.1,0.1-0.1,0.1c0,0-0.1,0-0.1,0.1c0,0,0,0,0,0c-0.1,0.1-0.2,0.2-0.3,0.2c0,0-0.1,0-0.1,0.1c0,0,0,0,0,0c0,0-0.1,0-0.1,0.1
	c0,0-0.1,0-0.1,0.1c0,0,0,0-0.1,0c0,0,0,0,0,0c0,0,0,0-0.1,0c0,0,0,0,0,0c0,0,0,0,0,0c0,0,0,0,0,0c0,0-0.1,0-0.1,0c0,0,0,0-0.1,0
	c0,0,0,0,0,0c0,0,0,0,0,0c0,0,0,0,0,0c0,0,0,0,0,0c0,0,0,0,0,0c0,0,0,0,0,0c0,0,0,0,0,0c0,0,0,0,0,0c0,0,0,0,0,0c0,0,0,0,0,0
	c0,0,0,0,0,0c0,0,0,0,0,0c0,0,0,0,0,0c0,0,0,0,0,0c0,0,0,0,0,0c0,0,0,0,0,0c0,0,0,0,0,0c0,0,0,0,0,0c0,0,0,0,0,0c0,0,0,0,0,0
	c0,0,0,0,0,0c0,0,0,0,0,0c0,0,0,0,0,0c0,0,0,0,0,0c0,0-0.1,0-0.1,0c0,0-0.1,0-0.1,0c0,0,0,0-0.1,0c0,0,0,0,0,0c0,0,0,0,0,0
	c0,0,0,0,0,0c0,0,0,0,0,0c0,0,0,0,0,0c0,0,0,0,0,0c0,0,0,0,0,0c0,0-0.1,0-0.1-0.1c0,0-0.1,0-0.1-0.1c0,0,0,0,0,0c0,0-0.1,0-0.1-0.1
	c-0.1-0.1-0.2-0.2-0.3-0.3c0,0,0,0,0,0c0,0-0.1-0.1-0.1-0.1c0,0-0.1-0.1-0.1-0.1c0,0,0,0,0,0c-0.5-0.5-0.8-1.1-1.1-1.5
	c-0.1-0.2-0.2-0.3-0.3-0.5c0-0.1-0.1-0.1-0.1-0.2c-0.1-0.3-0.3-0.6-0.4-0.9c0,0,0,0,0-0.1c0,0,0,0,0-0.1c-0.1-0.3-0.3-0.7-0.4-1.1
	c-0.2-0.6-0.4-1.3-0.5-2c0,0,0-0.1,0-0.1c0-0.1,0-0.1,0-0.2c0,0,0,0,0-0.1c0,0,0,0,0-0.1C25.7,22.4,25.6,21.9,25.7,21.5z M41,22.7
	C41.1,22.7,41.1,22.7,41,22.7C41.1,22.7,41.1,22.7,41,22.7c0.2,0.1,0.3,0.2,0.4,0.3c0,0,0.1,0,0.1,0.1c0.4,0.2,0.7,0.4,1.2,0.5
	l0.1,0l0,0.1c-0.1,0.4-0.1,0.9-0.1,1.3c0,0,0,0.1,0,0.1c0,0.2,0,0.3,0,0.5c0,0,0,0,0,0c0,0,0,0,0,0c0,0,0,0,0,0c0,0.5,0.1,1,0,1.4
	c-0.1,0.4-0.2,0.7-0.3,1c0,0,0,0.1,0,0.1c-0.1,0.2-0.3,0.5-0.4,0.7c0,0,0,0,0,0c0,0,0,0,0,0c-0.1,0.1-0.2,0.2-0.3,0.3
	c0,0,0,0-0.1,0.1c-0.3,0.3-0.6,0.5-0.9,0.7c-0.4,0.2-0.8,0.4-1.1,0.6c0,0,0,0-0.1,0c0,0,0,0,0,0c-0.1,0-0.1,0.1-0.2,0.1
	c0,0-0.1,0-0.1,0c-0.7,0.3-1.4,0.4-2,0.5c-0.4,0.1-0.8,0.1-1.2,0.2c0,0,0,0-0.1,0c0,0-0.1,0-0.1,0c-0.3,0-0.7,0.1-1,0.1
	c-0.1,0-0.1,0-0.2,0c-0.4,0-0.9,0-1.4,0c-0.4,0-0.8-0.1-1.1-0.2c0,0,0,0,0,0c0,0-0.1,0-0.1,0c0,0-0.1,0-0.1,0c0,0,0,0,0,0
	c-0.1,0-0.2-0.1-0.4-0.1c0,0-0.1,0-0.1-0.1c0,0,0,0,0,0c0,0-0.1,0-0.1,0c0,0-0.1,0-0.1-0.1c0,0,0,0-0.1,0c0,0,0,0,0,0c0,0,0,0-0.1,0
	c0,0,0,0,0,0c0,0,0,0,0,0c0,0,0,0,0,0c0,0,0,0-0.1-0.1c0,0,0,0-0.1-0.1c0,0,0,0,0,0c0,0,0,0,0,0c0,0,0,0,0,0c0,0,0,0,0,0
	c0,0,0,0,0.1,0c0,0,0.1,0,0.1,0c0,0,0.1,0,0.1-0.1c0,0,0,0,0,0c0,0,0,0,0,0c0,0,0,0,0,0c0,0,0,0,0,0c0,0,0,0,0,0c0,0,0,0,0,0
	c0,0,0.1,0,0.1-0.1c0,0,0,0,0.1,0c0,0,0,0,0,0c0,0,0.1,0,0.1-0.1c0,0,0.1-0.1,0.1-0.1c0.1-0.1,0.3-0.2,0.4-0.4c0,0,0,0,0-0.1
	c0,0,0,0,0-0.1c0.1-0.1,0.3-0.3,0.4-0.4c0,0,0,0,0-0.1c0,0,0,0,0-0.1c0.1-0.1,0.1-0.2,0.2-0.3c0,0,0,0,0,0c0.1-0.1,0.1-0.2,0.2-0.3
	c0.4-0.5,0.7-1.1,0.9-1.7c0-0.1,0-0.1,0.1-0.1c0.1-0.3,0.2-0.5,0.3-0.8c0,0,0,0,0-0.1c0,0,0,0,0-0.1c0.1-0.3,0.2-0.5,0.3-0.7
	c0.2-0.7,0.5-1.5,0.6-2.4c0.3-0.3,0.7-0.5,1.1-0.7c0.4-0.2,0.7-0.3,1.1-0.4c0,0,0.1,0,0.1,0c0.1,0,0.3-0.1,0.4-0.1c0,0,0,0,0,0
	c0,0,0,0,0,0c0.3,0,0.5,0,0.8,0c0,0,0.1,0,0.1,0c0.4,0,0.7,0.1,1,0.2C40.2,22.2,40.6,22.4,41,22.7C41,22.7,41,22.7,41,22.7z
	 M41.8,13c-0.7,0.4-1.4,0.8-2,1.2c0.1-0.8,0.1-1.6,0.1-2.4c-0.1-2.3-1-4.4-2.2-6c0.1,0,0.1,0,0.2,0c1-0.1,2.1-0.1,3.1,0
	c1.2,0.1,2.5,0.2,3.7-0.1l0.2-0.1l0,0.2c0.3,1.2,1,2.3,1.7,3.3c0.6,0.8,1.2,1.7,1.5,2.7c0,0.1,0,0.1,0.1,0.2
	C46.2,11.6,43.9,12,41.8,13z M20.5,11.9c-0.1,0.8,0,1.6,0,2.4c-0.6-0.5-1.3-0.9-2-1.2c-2.1-1-4.3-1.4-6.3-1c0-0.1,0-0.1,0.1-0.2
	c0.4-0.9,1-1.8,1.5-2.7c0.7-1,1.4-2.1,1.7-3.3l0-0.2l0.2,0.1C17,6,18.3,5.9,19.5,5.9c1-0.1,2.1-0.1,3.1,0c0.1,0,0.1,0,0.2,0
	C21.5,7.4,20.7,9.5,20.5,11.9z M8.9,29.8c0.7,0.4,1.4,0.8,2.1,1.1c-0.7,0.3-1.4,0.7-2.1,1.1c-1.9,1.3-3.4,3-4,4.9
	c0,0-0.1-0.1-0.1-0.1c-0.6-0.8-1.1-1.7-1.5-2.7c-0.5-1.1-1.1-2.3-2-3.2L1,30.9l0.1-0.1c0.9-0.9,1.4-2,2-3.2c0.4-0.9,0.9-1.9,1.5-2.7
	c0,0,0.1-0.1,0.1-0.1C5.5,26.7,6.9,28.5,8.9,29.8z M13.8,49.9c1.6,0,3.2-0.4,4.8-1.2c0.7-0.4,1.4-0.8,2-1.2
	c-0.1,0.8-0.1,1.6-0.1,2.4c0.1,2.3,1,4.4,2.2,6c-0.1,0-0.1,0-0.2,0c-1,0.1-2.1,0.1-3.1,0c-1.2-0.1-2.5-0.2-3.7,0.1l-0.2,0.1l0-0.2
	c-0.3-1.2-1-2.3-1.7-3.3c-0.6-0.8-1.2-1.7-1.5-2.7c0-0.1,0-0.1-0.1-0.2C12.7,49.9,13.3,49.9,13.8,49.9z M39.9,49.9
	c0.1-0.8,0-1.6-0.1-2.4c0.6,0.5,1.3,0.9,2,1.2c1.6,0.8,3.2,1.2,4.8,1.2c0.5,0,1,0,1.5-0.1c0,0.1,0,0.1-0.1,0.2
	c-0.4,0.9-1,1.8-1.5,2.7c-0.7,1-1.4,2.1-1.7,3.3l0,0.2l-0.2-0.1c-0.6-0.2-1.3-0.2-2-0.2c-0.6,0-1.2,0-1.7,0.1c-1,0.1-2.1,0.1-3.1,0
	c-0.1,0-0.1,0-0.2,0C38.9,54.4,39.7,52.3,39.9,49.9z M51.5,32c-0.7-0.4-1.4-0.8-2.1-1.1c0.7-0.3,1.4-0.7,2.1-1.1
	c1.9-1.3,3.4-3,4-4.9c0,0,0.1,0.1,0.1,0.1c0.6,0.8,1.1,1.7,1.5,2.7c0.5,1.1,1.1,2.3,2,3.2l0.1,0.1L59.2,31c-0.9,0.9-1.4,2-2,3.2
	c-0.4,0.9-0.9,1.9-1.5,2.7c0,0-0.1,0.1-0.1,0.1C54.9,35.1,53.5,33.3,51.5,32z"/>
<g>
	<path class="st0" d="M89.9,17.5v1.7h-6v2.4h-1.9v-2.4H76v-1.7H89.9z M77.1,16v-5.8h11.7V16H77.1z M79,20.4v2.8h10v1.7H77.1v-4.5H79
		z M87,11.8h-8v2.6h8V11.8z"/>
	<path class="st0" d="M100.3,16.7c0,0.5-0.1,0.9-0.3,1.3c-0.2,0.4-0.5,0.8-0.8,1.1c-0.5,0.4-1,0.7-1.7,0.9V22h4v1.7h-9.9V22h4v-1.9
		c-0.7-0.2-1.2-0.5-1.7-0.9c-0.3-0.3-0.6-0.7-0.8-1.1c-0.2-0.4-0.3-0.9-0.3-1.3c0-0.5,0.1-0.9,0.3-1.3c0.2-0.4,0.5-0.8,0.8-1.1
		c0.3-0.3,0.7-0.6,1.2-0.7c0.5-0.2,0.9-0.3,1.4-0.3c0.5,0,1,0.1,1.4,0.3c0.5,0.2,0.8,0.4,1.2,0.7c0.3,0.3,0.6,0.7,0.8,1.1
		C100.2,15.8,100.3,16.3,100.3,16.7z M95.6,11.4V9.8h2v1.6h3.6v1.6H92v-1.6H95.6z M98.5,16.7c0-0.5-0.2-0.9-0.5-1.3
		c-0.4-0.4-0.8-0.5-1.3-0.5c-0.5,0-1,0.2-1.3,0.5c-0.4,0.4-0.5,0.8-0.5,1.3s0.2,0.9,0.5,1.3c0.4,0.4,0.8,0.5,1.3,0.5
		c0.5,0,1-0.2,1.3-0.5C98.3,17.7,98.5,17.2,98.5,16.7z M104.6,25.1h-1.9V9.9h1.9v6.4h2v1.8h-2V25.1z"/>
	<path class="st0" d="M107.6,12.5v-1.7h7.4v1.7H112l3.4,10.2l-1.6,0.5l-2.4-7.3l-2.4,7.4l-1.7-0.5l3.4-10.3H107.6z M119.6,9.9h1.8
		v15.2h-1.8V18h-1.7v7h-1.8V9.9h1.8v6.3h1.7V9.9z"/>
	<path class="st0" d="M123.6,12.8v-1.6h3.6V9.8h2v1.5h3.4v1.6h-3.7l3.8,3.9l-1.3,1.2l-3.3-3.4l-3.2,3.7l-1.3-1.2l3.8-4.1H123.6z
		 M135.7,21.9c0,0.5-0.1,1-0.3,1.4c-0.2,0.4-0.5,0.8-0.8,1.2c-0.4,0.3-0.8,0.6-1.3,0.8c-0.5,0.2-1,0.3-1.5,0.3c-0.5,0-1-0.1-1.5-0.3
		c-0.5-0.2-0.9-0.5-1.3-0.8c-0.3-0.3-0.6-0.7-0.8-1.2c-0.2-0.4-0.3-0.9-0.3-1.4c0-0.5,0.1-1,0.3-1.4c0.2-0.5,0.5-0.8,0.8-1.2
		c0.4-0.3,0.8-0.6,1.3-0.8c0.5-0.2,1-0.3,1.5-0.3c0.5,0,1,0.1,1.5,0.3c0.5,0.2,0.9,0.5,1.3,0.8c0.3,0.3,0.6,0.7,0.8,1.2
		C135.6,20.9,135.7,21.4,135.7,21.9z M133.9,21.9c0-0.6-0.2-1.1-0.6-1.5c-0.4-0.4-0.9-0.6-1.5-0.6c-0.6,0-1.1,0.2-1.5,0.6
		c-0.4,0.4-0.6,0.9-0.6,1.5c0,0.6,0.2,1.1,0.6,1.5s0.9,0.6,1.5,0.6c0.6,0,1.1-0.2,1.5-0.6C133.7,22.9,133.9,22.4,133.9,21.9z
		 M135.1,18.4V15h-2.7v-1.6h2.7V9.9h1.9v8.5H135.1z"/>
	<path class="st0" d="M86.1,41.1h-2.5v-7.4h-7.3v-2.2h9.8V41.1z M92.9,46.8c0,0.7-0.1,1.3-0.4,1.9c-0.3,0.6-0.7,1.1-1.1,1.6
		c-0.5,0.5-1,0.8-1.7,1.1c-0.6,0.3-1.3,0.4-2,0.4s-1.4-0.1-2-0.4c-0.7-0.3-1.2-0.6-1.7-1.1c-0.5-0.4-0.8-1-1.1-1.6
		c-0.3-0.6-0.4-1.2-0.4-1.9c0-0.7,0.1-1.3,0.4-1.9c0.3-0.6,0.7-1.1,1.1-1.6c0.5-0.5,1-0.8,1.7-1.1c0.7-0.3,1.3-0.4,2-0.4
		s1.4,0.1,2,0.4c0.6,0.3,1.2,0.6,1.7,1.1c0.5,0.4,0.8,1,1.1,1.6C92.8,45.5,92.9,46.1,92.9,46.8z M90.4,46.8c0-0.8-0.3-1.4-0.8-2
		c-0.6-0.5-1.2-0.8-2-0.8c-0.8,0-1.4,0.3-2,0.8c-0.6,0.6-0.8,1.2-0.8,2c0,0.8,0.3,1.4,0.8,2c0.5,0.5,1.2,0.8,2,0.8
		c0.8,0,1.4-0.3,2-0.8C90.2,48.2,90.4,47.6,90.4,46.8z M91.2,30.8h2.5v10.8h-2.5v-2.5h-3.3V37h3.3v-1.9h-3.3v-2.1h3.3V30.8z"/>
	<path class="st0" d="M111.8,32.9v-1.9h2.5v8.2h-6.6v1.7h8.1v2.2H97.1v-2.2h8v-1.7h-6.5v-8.2h2.5v1.9H111.8z M98.4,44.7h15.9v6.4
		h-2.5v-4.2H98.4V44.7z M111.8,37v-2h-10.7v2H111.8z"/>
	<path class="st0" d="M126.4,42.4v-1.5h-8v-2.2H137v2.2h-8.1v1.5c0.9,0.2,1.7,0.7,2.4,1.3c0.5,0.5,0.8,1,1.1,1.5
		c0.3,0.6,0.4,1.2,0.4,1.9c0,0.7-0.1,1.3-0.4,1.9c-0.3,0.6-0.7,1.1-1.1,1.5c-0.5,0.5-1.1,0.8-1.7,1.1c-0.6,0.3-1.3,0.4-2,0.4
		c-0.7,0-1.4-0.1-2-0.4c-0.6-0.3-1.2-0.6-1.7-1.1c-0.5-0.4-0.9-0.9-1.1-1.5c-0.3-0.6-0.4-1.2-0.4-1.9c0-0.7,0.1-1.3,0.4-1.9
		c0.3-0.6,0.7-1.1,1.1-1.5C124.7,43.1,125.5,42.6,126.4,42.4z M132.9,37.4v-3.9h-13.1v-2.2h15.6v6.1H132.9z M130.4,47.1
		c0-0.7-0.3-1.4-0.8-1.9c-0.5-0.5-1.2-0.8-1.9-0.8c-0.8,0-1.4,0.3-1.9,0.8c-0.5,0.5-0.8,1.2-0.8,1.9s0.3,1.4,0.8,1.9
		c0.5,0.5,1.2,0.8,1.9,0.8c0.7,0,1.4-0.3,1.9-0.8C130.1,48.5,130.4,47.9,130.4,47.1z"/>
</g>
</svg>
