<?xml version="1.0" encoding="utf-8"?>
<!-- Generator: Adobe Illustrator 16.0.0, SVG Export Plug-In . SVG Version: 6.00 Build 0)  -->
<!DOCTYPE svg PUBLIC "-//W3C//DTD SVG 1.1//EN" "http://www.w3.org/Graphics/SVG/1.1/DTD/svg11.dtd">
<svg version="1.1" id="레이어_1" xmlns="http://www.w3.org/2000/svg" xmlns:xlink="http://www.w3.org/1999/xlink" x="0px"
	 y="0px" width="300px" height="300px" viewBox="0 0 300 300" enable-background="new 0 0 300 300" xml:space="preserve">
<path fill="#221E1F" d="M299.904,149.885l-0.912-0.792c-4.553-4.623-7.516-10.658-10.384-16.492
	c-2.373-4.818-4.818-9.797-8.165-14.038c-0.77-0.973-1.6-1.898-2.466-2.798c0.306-1.226,0.566-2.459,0.748-3.698
	c0.776-5.347,0.407-10.883,0.049-16.239c-0.434-6.487-0.884-13.197,0.745-19.464l0.397-1.158c0.018-0.054,0.012-0.112-0.018-0.161
	c-0.028-0.05-0.075-0.084-0.133-0.097l-1.188-0.231c-6.254-1.727-11.843-5.469-17.24-9.088c-4.462-2.987-9.072-6.077-14.088-8.075
	c-1.149-0.46-2.337-0.845-3.538-1.19c-0.346-1.215-0.738-2.412-1.202-3.576c-1.997-5.016-5.084-9.627-8.073-14.085
	c-3.621-5.403-7.362-10.988-9.091-17.231l-0.234-1.202c-0.012-0.055-0.046-0.103-0.096-0.133c-0.048-0.026-0.104-0.035-0.156-0.016
	l-1.146,0.391c-6.283,1.636-12.988,1.186-19.481,0.753c-5.351-0.358-10.891-0.729-16.234,0.049
	c-1.231,0.181-2.444,0.437-3.659,0.738c-0.907-0.877-1.846-1.719-2.824-2.494c-4.242-3.347-9.221-5.794-14.038-8.162
	c-5.841-2.869-11.87-5.836-16.485-10.378l-0.805-0.924c-0.073-0.086-0.222-0.086-0.299,0l-0.793,0.914
	c-4.623,4.552-10.657,7.519-16.491,10.388c-4.817,2.367-9.797,4.816-14.037,8.163c-0.975,0.768-1.899,1.599-2.8,2.465
	c-1.225-0.305-2.458-0.567-3.696-0.747c-5.348-0.775-10.884-0.408-16.239-0.049c-6.487,0.433-13.197,0.881-19.464-0.746
	l-1.158-0.397c-0.056-0.021-0.112-0.013-0.162,0.015c-0.049,0.029-0.084,0.078-0.096,0.133l-0.231,1.188
	c-1.727,6.256-5.469,11.84-9.088,17.244c-2.988,4.458-6.077,9.069-8.076,14.087c-0.461,1.152-0.845,2.335-1.19,3.535
	c-1.215,0.35-2.412,0.738-3.575,1.204c-5.019,1.997-9.63,5.087-14.089,8.076c-5.402,3.621-10.985,7.362-17.227,9.084l-1.203,0.234
	c-0.055,0.011-0.104,0.045-0.133,0.096c-0.028,0.05-0.034,0.11-0.016,0.164l0.394,1.143c1.633,6.28,1.184,12.99,0.752,19.478
	c-0.36,5.356-0.73,10.892,0.048,16.238c0.179,1.227,0.438,2.445,0.738,3.66c-0.878,0.909-1.721,1.844-2.496,2.829
	c-3.348,4.239-5.795,9.218-8.162,14.037c-2.868,5.834-5.836,11.87-10.378,16.481l-0.924,0.806c-0.043,0.037-0.068,0.089-0.068,0.146
	c0,0.057,0.025,0.112,0.068,0.149l0.914,0.796c4.552,4.624,7.52,10.654,10.388,16.491c2.367,4.817,4.814,9.797,8.162,14.042
	c0.768,0.969,1.599,1.896,2.467,2.792c-0.307,1.229-0.567,2.459-0.746,3.701c-0.781,5.347-0.408,10.886-0.051,16.238
	c0.434,6.489,0.882,13.195-0.746,19.463l-0.396,1.161c-0.02,0.053-0.016,0.112,0.014,0.163c0.028,0.045,0.078,0.078,0.134,0.092
	l1.188,0.227c6.255,1.731,11.839,5.476,17.241,9.094c4.459,2.988,9.071,6.075,14.087,8.074c1.156,0.461,2.337,0.862,3.541,1.208
	c0.35,1.21,0.736,2.401,1.198,3.555c1.998,5.023,5.089,9.632,8.075,14.09c3.62,5.4,7.362,10.986,9.085,17.229l0.236,1.204
	c0.011,0.056,0.046,0.104,0.094,0.132c0.03,0.019,0.066,0.028,0.101,0.028c0.022,0,0.043-0.004,0.063-0.013l1.144-0.392
	c6.281-1.636,12.991-1.188,19.479-0.751c5.359,0.357,10.896,0.726,16.239-0.051c1.226-0.18,2.444-0.436,3.657-0.738
	c0.908,0.878,1.844,1.72,2.827,2.494c4.242,3.35,9.221,5.794,14.039,8.167c5.833,2.868,11.87,5.833,16.479,10.376l0.807,0.923
	c0.038,0.044,0.092,0.067,0.147,0.067c0.058,0,0.111-0.023,0.149-0.067l0.798-0.914c4.62-4.552,10.651-7.514,16.489-10.385
	c4.816-2.37,9.798-4.817,14.038-8.167c0.969-0.765,1.898-1.599,2.797-2.467c1.227,0.307,2.458,0.568,3.7,0.752
	c5.341,0.776,10.885,0.404,16.233,0.049c6.495-0.437,13.2-0.884,19.469,0.745l1.159,0.395c0.02,0.008,0.042,0.01,0.064,0.01
	c0.033,0,0.065-0.01,0.096-0.023c0.047-0.029,0.081-0.077,0.093-0.133l0.229-1.188c1.731-6.258,5.476-11.842,9.095-17.242
	c2.99-4.458,6.078-9.07,8.075-14.09c0.457-1.146,0.84-2.321,1.187-3.519c1.217-0.346,2.412-0.754,3.577-1.217
	c5.017-1.999,9.629-5.087,14.087-8.075c5.4-3.621,10.986-7.365,17.23-9.089l1.202-0.234c0.057-0.016,0.101-0.047,0.132-0.096
	c0.03-0.051,0.036-0.105,0.016-0.158l-0.391-1.146c-1.634-6.283-1.186-12.989-0.75-19.479c0.359-5.351,0.726-10.892-0.051-16.24
	c-0.178-1.227-0.437-2.442-0.738-3.655c0.877-0.906,1.72-1.846,2.496-2.826c3.347-4.243,5.792-9.223,8.164-14.038
	c2.869-5.837,5.832-11.868,10.374-16.482l0.923-0.808c0.043-0.038,0.068-0.091,0.068-0.148
	C299.973,149.979,299.947,149.924,299.904,149.885 M275.112,188.023c0.733,5.042,0.384,10.28,0.047,15.349
	c-0.417,6.192-0.848,12.598,0.726,18.637l0.305,0.887l-0.935,0.187c-6.004,1.657-11.339,5.228-16.49,8.682
	c-4.221,2.827-8.582,5.755-13.313,7.637c-0.293,0.113-0.592,0.212-0.885,0.32c-0.068,0.023-0.139,0.049-0.208,0.074
	c-0.071,0.027-0.146,0.053-0.219,0.08c-0.956,0.34-1.922,0.648-2.905,0.908c-0.142,0.037-0.286,0.062-0.427,0.098
	c-9.943,2.467-21.39,0.954-32.149-4.381c-3.957-1.963-7.633-4.321-11.041-6.884c-0.078-0.059-0.15-0.117-0.228-0.176
	c-0.074-0.056-0.146-0.111-0.215-0.166c-0.753-0.567-1.488-1.15-2.209-1.74c-0.156-0.124-0.31-0.248-0.462-0.374
	c-5.887-4.857-10.876-10.188-14.969-14.853c-2.09-2.379-4.331-5.019-6.587-7.847c0.688-2.169,1.148-4.485,1.303-6.913
	c0.122-1.926,0.063-3.829-0.11-5.69c1.536,1.089,3.162,2.094,4.892,2.956c2.148,1.063,4.345,1.83,6.532,2.317
	c0.157,0.033,0.312,0.066,0.467,0.098c0.727,0.151,1.459,0.276,2.185,0.359c0.074,0.007,0.148,0.013,0.225,0.022
	c0.07,0.006,0.142,0.012,0.214,0.018c0.789,0.079,1.573,0.13,2.345,0.13c0.803,0,1.594-0.057,2.374-0.139
	c0.911,1.107,1.807,2.154,2.656,3.122c3.724,4.251,8.846,9.55,15.422,12.805c3.942,1.954,8.059,2.944,11.97,2.944
	c2.682,0,5.272-0.462,7.638-1.407c2.35-0.935,4.509-2.343,6.601-3.739c0.112-0.071,0.222-0.146,0.332-0.22
	c0.042-0.031,0.085-0.06,0.126-0.087c0.544-0.363,1.094-0.729,1.646-1.088c0.056-0.036,0.114-0.073,0.17-0.114
	c0.057-0.033,0.109-0.07,0.164-0.104c2.085-1.345,4.255-2.57,6.602-3.221l0.603-0.12c0.053-0.013,0.103-0.045,0.13-0.095
	c0.026-0.05,0.034-0.108,0.018-0.164l-0.193-0.561c-0.617-2.365-0.637-4.856-0.52-7.328c0.003-0.063,0.01-0.132,0.013-0.198
	c0.003-0.067,0.008-0.132,0.011-0.2c0.036-0.664,0.078-1.325,0.122-1.981c0.004-0.049,0.006-0.092,0.01-0.139
	c0.007-0.132,0.016-0.269,0.023-0.402c0.166-2.516,0.308-5.096-0.059-7.604c-0.9-6.194-4.958-12.105-11.135-16.213
	c-6.111-4.059-13.257-5.848-18.798-6.951c-1.374-0.27-2.702-0.499-4.005-0.704c-0.618-1.41-1.388-2.779-2.317-4.079
	c2.953-0.488,5.787-1.01,8.412-1.535c7.066-1.407,15.442-3.382,23.745-6.725c3.907,1.662,7.78,3.665,11.444,6.105
	c10.011,6.658,17.051,15.829,19.877,25.683c0.039,0.142,0.09,0.275,0.126,0.418c0.271,0.986,0.486,1.98,0.668,2.972
	c0.016,0.078,0.027,0.155,0.042,0.232c0.012,0.07,0.023,0.139,0.038,0.213C275.004,187.431,275.069,187.724,275.112,188.023
	 M180.481,276.637c-0.057,0.047-0.111,0.096-0.163,0.141c-0.233,0.195-0.458,0.395-0.694,0.579c-3.998,3.16-8.71,5.474-13.27,7.717
	c-5.57,2.738-11.33,5.568-15.774,9.952l-0.618,0.701l-0.625-0.714c-4.438-4.371-10.198-7.201-15.767-9.939
	c-4.559-2.243-9.271-4.557-13.269-7.717c-0.247-0.19-0.479-0.403-0.72-0.603c-0.058-0.043-0.112-0.094-0.167-0.141
	c-0.06-0.053-0.12-0.099-0.183-0.15c-0.765-0.652-1.518-1.335-2.235-2.062c-0.103-0.105-0.197-0.216-0.298-0.321
	c-7.108-7.375-11.521-18.045-12.28-30.03c-0.281-4.41-0.076-8.772,0.438-13.005c0.012-0.098,0.026-0.196,0.039-0.295
	c0.012-0.088,0.022-0.174,0.035-0.26c0.118-0.935,0.255-1.861,0.403-2.783c0.031-0.194,0.063-0.393,0.095-0.587
	c1.262-7.526,3.382-14.514,5.377-20.386c1.017-3,2.179-6.252,3.494-9.61c2.227-0.486,4.465-1.264,6.648-2.346
	c1.726-0.854,3.346-1.856,4.871-2.939c-0.174,1.867-0.234,3.777-0.11,5.709c0.15,2.383,0.601,4.661,1.271,6.796
	c0.05,0.153,0.09,0.31,0.143,0.462c0.235,0.709,0.501,1.394,0.793,2.063c0.028,0.067,0.056,0.139,0.087,0.207
	c0.028,0.068,0.054,0.139,0.083,0.207c0.665,1.464,1.461,2.823,2.369,4.072c-0.507,1.344-0.97,2.659-1.386,3.88
	c-1.816,5.356-3.841,12.44-3.379,19.754c0.471,7.4,3.559,13.871,8.475,17.749c1.981,1.567,4.28,2.733,6.538,3.849
	c0.119,0.059,0.242,0.122,0.36,0.181c0.046,0.021,0.093,0.046,0.137,0.067c0.588,0.285,1.179,0.578,1.765,0.879
	c0.059,0.031,0.12,0.062,0.18,0.09l0.177,0.088c2.208,1.137,4.355,2.395,6.089,4.105l0.404,0.465
	c0.038,0.042,0.092,0.067,0.147,0.067c0.058,0,0.111-0.025,0.149-0.067l0.395-0.453c1.736-1.714,3.885-2.974,6.086-4.111
	c0.059-0.029,0.117-0.058,0.176-0.088c0.063-0.027,0.122-0.059,0.182-0.09c0.591-0.304,1.183-0.597,1.775-0.885
	c0.04-0.021,0.083-0.04,0.122-0.062c0.12-0.059,0.242-0.12,0.362-0.18c2.26-1.115,4.566-2.285,6.55-3.855
	c4.919-3.878,8.005-10.349,8.474-17.749c0.465-7.313-1.557-14.395-3.377-19.754c-0.45-1.326-0.913-2.598-1.386-3.823
	c0.908-1.243,1.704-2.591,2.372-4.045c1.895,2.313,3.767,4.504,5.529,6.517c4.755,5.42,10.65,11.682,17.701,17.202
	c0.511,4.217,0.711,8.569,0.433,12.964c-0.757,12.001-5.182,22.681-12.305,30.056c-0.102,0.104-0.197,0.216-0.299,0.32
	c-0.72,0.728-1.469,1.41-2.238,2.063C180.601,276.536,180.542,276.584,180.481,276.637 M54.516,239.333
	c-4.731-1.881-9.094-4.806-13.313-7.634c-5.158-3.453-10.489-7.023-16.51-8.688l-0.918-0.182l0.31-0.901
	c1.565-6.023,1.136-12.431,0.722-18.622c-0.335-5.068-0.687-10.308,0.045-15.347c0.044-0.31,0.11-0.619,0.164-0.929
	c0.013-0.07,0.025-0.142,0.039-0.212c0.012-0.08,0.026-0.157,0.04-0.23c0.186-0.994,0.398-1.989,0.67-2.974
	c0.04-0.139,0.088-0.275,0.129-0.414c2.836-9.842,9.865-19.004,19.866-25.653c3.679-2.446,7.56-4.452,11.479-6.117
	c0.092-0.041,0.186-0.077,0.278-0.117c0.08-0.033,0.159-0.064,0.241-0.098c0.87-0.367,1.74-0.714,2.612-1.046
	c0.188-0.071,0.372-0.142,0.559-0.212c7.145-2.668,14.255-4.323,20.342-5.536c3.111-0.62,6.505-1.246,10.085-1.791
	c1.536,1.689,3.311,3.247,5.34,4.597c1.604,1.066,3.281,1.967,4.981,2.751c-1.707,0.784-3.39,1.688-4.999,2.758
	c-1.99,1.326-3.734,2.854-5.251,4.5c-0.109,0.118-0.225,0.233-0.331,0.353c-0.493,0.556-0.95,1.131-1.388,1.719
	c-0.046,0.059-0.093,0.117-0.138,0.179s-0.093,0.117-0.138,0.179c-0.933,1.308-1.715,2.673-2.341,4.085
	c-1.421,0.235-2.785,0.487-4.054,0.739c-5.542,1.103-12.691,2.895-18.796,6.951c-6.176,4.107-10.233,10.019-11.137,16.213
	c-0.364,2.5-0.227,5.076-0.061,7.588c0.008,0.133,0.016,0.269,0.023,0.402c0.005,0.049,0.006,0.102,0.012,0.15
	c0.043,0.653,0.086,1.313,0.12,1.97c0.005,0.068,0.008,0.133,0.012,0.2c0.004,0.068,0.009,0.133,0.012,0.199
	c0.121,2.474,0.102,4.969-0.513,7.323l-0.198,0.58c-0.016,0.055-0.011,0.114,0.017,0.164c0.027,0.049,0.076,0.086,0.134,0.095
	l0.587,0.114c2.352,0.652,4.521,1.875,6.602,3.217c0.056,0.034,0.111,0.071,0.166,0.104c0.056,0.041,0.113,0.074,0.168,0.115
	c0.558,0.362,1.107,0.729,1.656,1.097c0.037,0.023,0.075,0.049,0.113,0.076c0.111,0.075,0.225,0.149,0.336,0.224
	c2.096,1.393,4.262,2.808,6.612,3.747c2.367,0.94,4.956,1.405,7.638,1.405c3.912,0,8.032-0.99,11.973-2.942
	c6.571-3.26,11.692-8.555,15.418-12.806c0.921-1.051,1.787-2.075,2.611-3.102c0.804,0.09,1.612,0.147,2.434,0.147
	c0.746,0,1.502-0.045,2.261-0.119c-1.054,2.799-2.016,5.513-2.877,8.045c-2.313,6.82-4.793,15.062-6.048,23.929
	c-3.396,2.552-7.063,4.897-11.01,6.858c-10.77,5.343-22.231,6.851-32.183,4.372c-0.143-0.037-0.284-0.062-0.426-0.102
	c-0.986-0.257-1.951-0.569-2.906-0.909c-0.074-0.027-0.146-0.053-0.222-0.08c-0.068-0.024-0.137-0.049-0.205-0.077
	C55.078,239.538,54.791,239.445,54.516,239.333 M24.89,111.974c-0.73-5.041-0.381-10.28-0.045-15.349
	c0.415-6.191,0.843-12.598-0.728-18.639l-0.304-0.886l0.933-0.184c6.007-1.657,11.338-5.229,16.496-8.686
	c4.219-2.828,8.581-5.748,13.312-7.633c0.286-0.115,0.586-0.212,0.881-0.32c0.067-0.024,0.136-0.05,0.203-0.074
	c0.075-0.027,0.149-0.054,0.222-0.08c0.955-0.337,1.922-0.648,2.909-0.906c0.14-0.038,0.284-0.063,0.425-0.098
	c9.943-2.466,21.39-0.954,32.147,4.378c3.959,1.963,7.637,4.322,11.043,6.882c0.075,0.057,0.15,0.118,0.228,0.175
	c0.072,0.056,0.144,0.112,0.217,0.167c0.75,0.571,1.486,1.151,2.209,1.741c0.155,0.125,0.311,0.249,0.462,0.375
	c5.886,4.856,10.873,10.184,14.968,14.85c2.089,2.382,4.327,5.024,6.591,7.849c-0.693,2.17-1.156,4.483-1.31,6.914
	c-0.122,1.923-0.065,3.825,0.106,5.689c-1.529-1.086-3.155-2.092-4.886-2.951c-2.143-1.063-4.337-1.808-6.521-2.297
	c-0.157-0.034-0.314-0.078-0.471-0.109c-0.732-0.149-1.458-0.259-2.181-0.344c-0.075-0.009-0.152-0.021-0.227-0.029
	c-0.072-0.006-0.146-0.021-0.218-0.029c-1.601-0.159-3.178-0.151-4.714,0.014c-0.911-1.111-1.815-2.171-2.668-3.139
	c-3.727-4.251-8.849-9.545-15.417-12.805c-6.645-3.296-13.792-3.859-19.61-1.537c-2.348,0.936-4.508,2.342-6.601,3.741
	c-0.111,0.074-0.224,0.148-0.334,0.223c-0.042,0.028-0.087,0.055-0.13,0.083c-0.544,0.364-1.09,0.729-1.642,1.089
	c-0.058,0.037-0.112,0.075-0.169,0.111c-0.056,0.034-0.109,0.07-0.165,0.106c-2.085,1.343-4.254,2.574-6.602,3.22L52.7,93.604
	c-0.058,0.01-0.105,0.046-0.134,0.095c-0.029,0.049-0.033,0.11-0.016,0.164l0.193,0.565c0.616,2.364,0.639,4.856,0.518,7.328
	c-0.003,0.065-0.008,0.13-0.011,0.196l-0.012,0.201c-0.036,0.663-0.076,1.325-0.121,1.981c-0.003,0.045-0.005,0.092-0.009,0.138
	c-0.009,0.133-0.015,0.268-0.024,0.402c-0.166,2.515-0.308,5.096,0.059,7.601c0.902,6.199,4.961,12.106,11.136,16.213
	c6.105,4.062,13.252,5.849,18.795,6.954c1.375,0.273,2.707,0.51,4.01,0.716c0.616,1.402,1.387,2.765,2.31,4.065
	c-2.956,0.486-5.776,1.014-8.403,1.536c-7.072,1.408-15.449,3.382-23.751,6.73c-3.907-1.669-7.776-3.672-11.441-6.109
	c-10.012-6.656-17.05-15.829-19.878-25.683c-0.038-0.141-0.088-0.28-0.128-0.421c-0.269-0.983-0.481-1.976-0.665-2.971
	c-0.015-0.078-0.029-0.154-0.041-0.231c-0.014-0.071-0.025-0.144-0.038-0.213C24.997,112.564,24.932,112.271,24.89,111.974
	 M119.52,23.356c0.054-0.047,0.11-0.094,0.165-0.14c0.233-0.193,0.456-0.395,0.694-0.582c3.996-3.153,8.709-5.47,13.267-7.708
	c5.569-2.741,11.331-5.571,15.778-9.95l0.615-0.709l0.625,0.719c4.438,4.371,10.198,7.2,15.769,9.94
	c4.556,2.24,9.271,4.558,13.269,7.708c0.243,0.195,0.479,0.405,0.718,0.606c0.054,0.047,0.11,0.095,0.166,0.14
	c0.063,0.051,0.121,0.102,0.182,0.153c0.771,0.66,1.519,1.338,2.236,2.065c0.102,0.104,0.197,0.216,0.302,0.321
	c7.106,7.375,11.522,18.046,12.278,30.031c0.276,4.407,0.075,8.77-0.438,13.002c-7.065,5.521-12.972,11.799-17.731,17.228
	c-1.942,2.211-3.768,4.387-5.497,6.538c-0.666-1.467-1.46-2.826-2.371-4.074c0.509-1.35,0.973-2.657,1.385-3.88
	c1.822-5.353,3.842-12.433,3.379-19.757c-0.47-7.402-3.556-13.87-8.475-17.749c-1.979-1.565-4.282-2.734-6.535-3.845
	c-0.121-0.06-0.242-0.121-0.362-0.18c-0.046-0.021-0.09-0.045-0.135-0.068c-0.587-0.288-1.176-0.583-1.766-0.881
	c-0.061-0.03-0.12-0.058-0.179-0.09c-0.06-0.031-0.118-0.06-0.18-0.09c-2.203-1.134-4.355-2.396-6.089-4.105l-0.401-0.461
	c-0.038-0.042-0.092-0.065-0.148-0.065s-0.111,0.023-0.15,0.065l-0.391,0.451c-1.74,1.713-3.886,2.978-6.087,4.11
	c-0.062,0.03-0.12,0.059-0.178,0.09c-0.061,0.03-0.121,0.058-0.181,0.089c-0.591,0.299-1.183,0.597-1.774,0.887
	c-0.041,0.021-0.082,0.043-0.122,0.062c-0.121,0.058-0.242,0.121-0.363,0.181c-2.261,1.112-4.564,2.281-6.551,3.85
	c-4.916,3.88-8.006,10.348-8.475,17.75c-0.461,7.322,1.563,14.403,3.377,19.755c0.45,1.328,0.911,2.596,1.385,3.827
	c-0.906,1.238-1.701,2.588-2.369,4.042c-1.896-2.315-3.767-4.504-5.531-6.517c-4.755-5.42-10.649-11.689-17.702-17.205
	c-0.508-4.218-0.71-8.567-0.433-12.96c0.76-12.002,5.186-22.682,12.306-30.057c0.101-0.106,0.197-0.219,0.3-0.323
	c0.717-0.726,1.472-1.402,2.238-2.06C119.397,23.457,119.459,23.406,119.52,23.356 M245.488,60.663
	c4.733,1.886,9.094,4.806,13.314,7.635c5.156,3.456,10.488,7.027,16.504,8.688l0.921,0.179l-0.308,0.902
	c-1.567,6.026-1.14,12.43-0.726,18.622c0.34,5.068,0.69,10.309-0.045,15.352c-0.046,0.308-0.11,0.611-0.163,0.922
	c-0.013,0.07-0.025,0.141-0.037,0.213c-0.016,0.078-0.027,0.154-0.043,0.231c-0.187,0.998-0.398,1.99-0.672,2.973
	c-0.036,0.14-0.088,0.279-0.126,0.416c-2.834,9.843-9.869,19.004-19.867,25.651c-3.676,2.446-7.56,4.451-11.481,6.125
	c-0.091,0.039-0.183,0.075-0.276,0.114c-0.081,0.034-0.161,0.065-0.241,0.099c-0.869,0.363-1.739,0.71-2.614,1.042
	c-0.185,0.071-0.371,0.142-0.556,0.211c-7.146,2.669-14.254,4.323-20.343,5.536c-3.108,0.621-6.503,1.244-10.082,1.792
	c-1.532-1.687-3.311-3.244-5.343-4.597c-1.602-1.065-3.281-1.969-4.978-2.751c1.702-0.785,3.39-1.686,4.997-2.758
	c1.991-1.324,3.734-2.851,5.25-4.5c0.109-0.118,0.223-0.234,0.332-0.35c0.492-0.558,0.949-1.133,1.386-1.716
	c0.045-0.062,0.095-0.123,0.139-0.184c0.045-0.061,0.094-0.117,0.136-0.175c0.938-1.307,1.713-2.675,2.342-4.084
	c1.424-0.236,2.787-0.488,4.054-0.741c5.547-1.105,12.69-2.893,18.798-6.954c6.178-4.106,10.237-10.014,11.135-16.213
	c0.366-2.499,0.228-5.075,0.062-7.587c-0.01-0.133-0.017-0.269-0.026-0.401c-0.004-0.051-0.006-0.103-0.01-0.151
	c-0.043-0.652-0.086-1.309-0.121-1.967c-0.006-0.069-0.009-0.135-0.012-0.204l-0.011-0.198c-0.118-2.474-0.101-4.968,0.513-7.324
	l0.198-0.58c0.019-0.053,0.013-0.115-0.016-0.164c-0.028-0.049-0.077-0.085-0.134-0.095l-0.587-0.113
	c-2.354-0.649-4.523-1.876-6.601-3.216c-0.059-0.037-0.111-0.073-0.166-0.109l-0.17-0.11c-0.558-0.362-1.11-0.729-1.653-1.096
	c-0.041-0.025-0.08-0.05-0.117-0.077c-0.112-0.073-0.225-0.147-0.331-0.222c-2.102-1.402-4.26-2.811-6.613-3.749
	c-5.823-2.32-12.968-1.758-19.609,1.538c-6.571,3.256-11.692,8.551-15.422,12.803c-0.924,1.05-1.789,2.087-2.62,3.112
	c-1.528-0.168-3.092-0.184-4.686-0.031c-0.078,0.008-0.154,0.021-0.232,0.029c-0.068,0.007-0.139,0.02-0.21,0.027
	c-0.719,0.082-1.438,0.186-2.156,0.33c-0.156,0.032-0.311,0.076-0.469,0.108c-2.228,0.488-4.461,1.243-6.645,2.326
	c-1.724,0.856-3.343,1.856-4.872,2.938c0.173-1.872,0.231-3.78,0.108-5.71c-0.147-2.386-0.601-4.661-1.266-6.797
	c2.027-2.589,4.2-5.217,6.554-7.901c4.101-4.673,9.096-10.01,14.999-14.872c0.151-0.127,0.308-0.252,0.458-0.375
	c0.725-0.591,1.46-1.171,2.209-1.742c0.075-0.054,0.146-0.11,0.219-0.166c0.078-0.058,0.152-0.117,0.231-0.175
	c3.395-2.552,7.061-4.9,11.007-6.857c7.409-3.673,15.144-5.539,22.492-5.539c3.338,0,6.586,0.423,9.701,1.2
	c0.138,0.035,0.282,0.063,0.423,0.1c0.985,0.26,1.95,0.567,2.903,0.907c0.074,0.026,0.146,0.047,0.22,0.074
	c0.068,0.024,0.137,0.044,0.204,0.069C244.92,60.478,245.212,60.554,245.488,60.663 M246.52,195.367
	c-0.01,0.133-0.019,0.271-0.025,0.399c-0.001,0.025-0.004,0.047-0.005,0.068c-0.047,0.675-0.088,1.357-0.121,2.043
	c-0.004,0.068-0.008,0.133-0.012,0.201l-0.014,0.196c-0.115,2.487-0.091,4.998,0.534,7.41l0.123,0.361l-0.391,0.078
	c-2.392,0.662-4.578,1.896-6.68,3.241c-0.054,0.037-0.109,0.073-0.165,0.11c-0.057,0.035-0.111,0.074-0.171,0.111
	c-0.568,0.371-1.133,0.746-1.692,1.122c-0.024,0.016-0.045,0.028-0.066,0.043c-0.106,0.074-0.22,0.148-0.33,0.222
	c-2.097,1.398-4.256,2.813-6.59,3.742c-5.713,2.276-12.746,1.722-19.286-1.526c-6.514-3.229-11.601-8.487-15.305-12.708
	c-0.794-0.911-1.635-1.893-2.489-2.925c1.667-0.221,3.288-0.607,4.809-1.215c2.519-1.003,4.83-2.546,7.063-4.046
	c0.211-0.143,0.426-0.284,0.643-0.43c0.067-0.046,0.137-0.09,0.204-0.136c0.068-0.047,0.138-0.094,0.207-0.14
	c0.672-0.444,1.349-0.886,2.037-1.302c0.149-0.09,0.298-0.174,0.448-0.264c1.607-0.946,3.268-1.771,5.037-2.256l0.603-0.12
	c0.059-0.01,0.105-0.044,0.133-0.094c0.029-0.049,0.035-0.11,0.017-0.165l-0.194-0.563c-0.459-1.766-0.585-3.606-0.57-5.454
	c0.005-0.176,0-0.352,0.005-0.528c0.018-0.805,0.059-1.613,0.107-2.416c0.005-0.082,0.01-0.157,0.015-0.239
	c0.006-0.086,0.014-0.172,0.017-0.26c0.019-0.268,0.036-0.539,0.054-0.807c0.181-2.688,0.366-5.458-0.024-8.141
	c-0.234-1.597-0.685-3.176-1.319-4.706c1.216,0.195,2.449,0.409,3.724,0.665c5.506,1.094,12.601,2.868,18.657,6.892
	c6.084,4.046,10.08,9.858,10.963,15.941C246.829,190.269,246.685,192.854,246.52,195.367 M156.539,257.48
	c-0.061,0.031-0.118,0.059-0.174,0.09c-2.214,1.144-4.373,2.417-6.147,4.167l-0.256,0.291l-0.264-0.299
	c-1.769-1.747-3.93-3.018-6.147-4.165c-0.06-0.031-0.118-0.059-0.179-0.09c-0.059-0.027-0.12-0.059-0.181-0.09
	c-0.604-0.309-1.212-0.607-1.816-0.906c-0.024-0.012-0.048-0.025-0.072-0.037c-0.118-0.059-0.239-0.119-0.357-0.178
	c-2.262-1.112-4.566-2.279-6.537-3.832c-4.826-3.812-7.862-10.178-8.322-17.466c-0.46-7.243,1.552-14.283,3.358-19.604
	c0.383-1.139,0.816-2.36,1.284-3.609c1.021,1.334,2.173,2.532,3.456,3.546c2.128,1.678,4.622,2.907,7.036,4.092
	c0.229,0.114,0.459,0.231,0.69,0.346c0.077,0.037,0.156,0.077,0.233,0.117c0.073,0.034,0.145,0.071,0.218,0.108
	c0.719,0.358,1.433,0.733,2.141,1.121c0.153,0.086,0.307,0.166,0.458,0.253c1.62,0.915,3.166,1.938,4.469,3.224l0.403,0.454
	c0.036,0.043,0.092,0.068,0.149,0.068c0.057,0,0.11-0.025,0.146-0.068l0.394-0.444c1.299-1.283,2.831-2.299,4.438-3.212
	c0.152-0.083,0.307-0.167,0.459-0.251c0.71-0.388,1.42-0.765,2.142-1.126c0.074-0.034,0.145-0.074,0.221-0.108
	c0.077-0.04,0.152-0.077,0.23-0.118c0.241-0.119,0.486-0.246,0.73-0.363c2.412-1.185,4.908-2.414,7.035-4.092
	c1.271-1,2.409-2.181,3.42-3.491c0.438,1.145,0.869,2.324,1.285,3.555c1.806,5.323,3.813,12.359,3.354,19.604
	c-0.455,7.288-3.492,13.654-8.322,17.466c-1.972,1.556-4.287,2.723-6.548,3.841c-0.12,0.059-0.24,0.116-0.358,0.175
	c-0.021,0.01-0.041,0.021-0.063,0.031c-0.603,0.301-1.215,0.602-1.828,0.913C156.66,257.422,156.599,257.449,156.539,257.48
	 M62.062,210.645c-0.565-0.379-1.131-0.757-1.707-1.133c-0.055-0.035-0.11-0.074-0.167-0.108c-0.056-0.037-0.111-0.074-0.166-0.107
	c-2.094-1.35-4.282-2.577-6.683-3.243l-0.379-0.074l0.132-0.377c0.624-2.402,0.647-4.919,0.528-7.405
	c-0.003-0.068-0.008-0.133-0.011-0.197c-0.003-0.068-0.009-0.137-0.012-0.204c-0.036-0.677-0.079-1.354-0.124-2.024
	c-0.002-0.029-0.003-0.057-0.005-0.084c-0.009-0.134-0.016-0.267-0.024-0.399c-0.166-2.509-0.311-5.091,0.05-7.575
	c0.889-6.087,4.886-11.899,10.966-15.941c6.049-4.021,13.147-5.798,18.655-6.892c1.183-0.238,2.454-0.474,3.771-0.693
	c-0.647,1.552-1.109,3.149-1.345,4.768c-0.39,2.679-0.203,5.45-0.025,8.139c0.018,0.255,0.033,0.512,0.051,0.766
	c0.005,0.084,0.01,0.17,0.016,0.254s0.012,0.165,0.017,0.245c0.048,0.8,0.09,1.605,0.108,2.41c0.003,0.172,0.002,0.353,0.003,0.529
	c0.02,1.861-0.103,3.715-0.563,5.486l-0.199,0.58c-0.017,0.053-0.012,0.111,0.017,0.161c0.028,0.049,0.077,0.086,0.135,0.096
	l0.585,0.114c1.762,0.488,3.414,1.3,5.012,2.238c0.148,0.089,0.301,0.172,0.445,0.262c0.691,0.419,1.371,0.858,2.045,1.301
	c0.066,0.049,0.137,0.092,0.206,0.139c0.067,0.046,0.135,0.092,0.205,0.136c0.228,0.155,0.455,0.307,0.682,0.457
	c2.233,1.497,4.545,3.043,7.061,4.046c1.503,0.6,3.099,0.984,4.745,1.202c-0.777,0.961-1.588,1.92-2.448,2.904
	c-3.704,4.22-8.788,9.479-15.3,12.708c-6.544,3.246-13.573,3.8-19.286,1.525c-2.336-0.932-4.504-2.35-6.601-3.75
	c-0.11-0.074-0.223-0.148-0.334-0.22L62.062,210.645z M53.483,104.628c0.007-0.133,0.015-0.266,0.023-0.399
	c0.001-0.022,0.003-0.045,0.004-0.068c0.046-0.675,0.088-1.357,0.125-2.04l0.014-0.202c0.003-0.066,0.008-0.131,0.009-0.196
	c0.12-2.487,0.093-4.999-0.534-7.407l-0.127-0.367l0.395-0.077c2.394-0.661,4.582-1.896,6.68-3.244
	c0.056-0.035,0.109-0.071,0.165-0.108c0.058-0.037,0.112-0.073,0.167-0.109c0.571-0.371,1.135-0.747,1.694-1.124
	c0.021-0.016,0.045-0.03,0.069-0.046c0.109-0.073,0.221-0.146,0.333-0.22c2.093-1.4,4.255-2.813,6.588-3.742
	c5.715-2.278,12.745-1.723,19.289,1.524c6.508,3.228,11.593,8.488,15.298,12.71c0.794,0.903,1.635,1.889,2.482,2.92
	c-1.666,0.214-3.278,0.611-4.797,1.217c-2.519,1.003-4.829,2.548-7.063,4.048c-0.212,0.142-0.427,0.284-0.642,0.428
	c-0.069,0.045-0.14,0.091-0.21,0.137c-0.068,0.046-0.136,0.092-0.205,0.138c-0.668,0.445-1.347,0.882-2.032,1.301
	c-0.15,0.091-0.303,0.177-0.454,0.267c-1.606,0.945-3.27,1.769-5.036,2.257l-0.603,0.118c-0.054,0.011-0.104,0.045-0.133,0.095
	c-0.028,0.049-0.035,0.108-0.016,0.162l0.195,0.564c0.459,1.769,0.582,3.608,0.567,5.458c-0.001,0.177,0,0.35-0.004,0.526
	c-0.018,0.805-0.058,1.611-0.108,2.413c-0.005,0.08-0.01,0.16-0.014,0.24c-0.005,0.086-0.011,0.172-0.017,0.259
	c-0.017,0.269-0.036,0.542-0.053,0.811c-0.181,2.682-0.364,5.458,0.027,8.139c0.231,1.596,0.68,3.169,1.311,4.701
	c-1.215-0.196-2.442-0.404-3.721-0.66c-5.507-1.098-12.606-2.871-18.654-6.894c-6.081-4.044-10.078-9.854-10.966-15.939
	C53.172,109.729,53.317,107.146,53.483,104.628 M143.461,42.513c0.059-0.03,0.118-0.06,0.179-0.09
	c2.212-1.139,4.374-2.419,6.148-4.166l0.251-0.292l0.264,0.303c1.769,1.743,3.934,3.02,6.147,4.161
	c0.058,0.032,0.116,0.059,0.179,0.09c0.059,0.03,0.118,0.061,0.18,0.09c0.604,0.308,1.211,0.613,1.816,0.91
	c0.022,0.011,0.05,0.024,0.073,0.036c0.119,0.059,0.238,0.12,0.358,0.178c2.257,1.112,4.563,2.279,6.532,3.832
	c4.831,3.811,7.867,10.177,8.325,17.466c0.46,7.253-1.548,14.287-3.354,19.606c-0.389,1.139-0.823,2.357-1.29,3.609
	c-1.016-1.338-2.166-2.534-3.453-3.548c-2.128-1.68-4.627-2.907-7.035-4.093c-0.23-0.111-0.462-0.23-0.691-0.342
	c-0.077-0.039-0.155-0.078-0.23-0.117c-0.071-0.037-0.146-0.073-0.218-0.109c-0.723-0.359-1.432-0.737-2.144-1.125
	c-0.151-0.084-0.305-0.167-0.459-0.251c-1.621-0.917-3.163-1.936-4.466-3.219l-0.403-0.463c-0.077-0.087-0.222-0.087-0.301,0
	l-0.392,0.453c-1.297,1.278-2.83,2.294-4.438,3.207c-0.151,0.086-0.307,0.168-0.457,0.252c-0.708,0.388-1.422,0.767-2.142,1.127
	l-0.218,0.108c-0.078,0.04-0.155,0.079-0.233,0.117c-0.244,0.119-0.488,0.244-0.731,0.363c-2.412,1.186-4.907,2.413-7.036,4.093
	c-1.268,1-2.409,2.179-3.417,3.494c-0.44-1.149-0.87-2.327-1.284-3.558c-1.806-5.319-3.816-12.353-3.358-19.604
	c0.463-7.29,3.495-13.655,8.324-17.466c1.973-1.556,4.283-2.725,6.548-3.839c0.118-0.059,0.237-0.12,0.358-0.178
	c0.018-0.01,0.041-0.021,0.06-0.03c0.609-0.298,1.218-0.605,1.828-0.915C143.34,42.571,143.401,42.543,143.461,42.513
	 M237.938,89.354c0.563,0.378,1.132,0.756,1.706,1.129c0.058,0.037,0.113,0.074,0.17,0.11c0.056,0.036,0.109,0.073,0.167,0.109
	c2.095,1.344,4.279,2.578,6.683,3.241l0.377,0.073l-0.131,0.379c-0.621,2.403-0.647,4.916-0.528,7.406
	c0.004,0.064,0.006,0.13,0.012,0.197c0.002,0.066,0.006,0.135,0.008,0.201c0.035,0.68,0.081,1.355,0.126,2.027
	c0,0.027,0.004,0.054,0.004,0.081c0.01,0.133,0.017,0.265,0.026,0.398c0.165,2.515,0.306,5.095-0.054,7.58
	c-0.883,6.085-4.879,11.895-10.963,15.939c-6.051,4.022-13.147,5.797-18.657,6.894c-1.18,0.235-2.452,0.469-3.771,0.693
	c0.647-1.554,1.109-3.149,1.348-4.766c0.39-2.683,0.204-5.458,0.026-8.14c-0.019-0.254-0.036-0.513-0.051-0.769
	c-0.008-0.086-0.014-0.172-0.018-0.257c-0.006-0.081-0.009-0.161-0.017-0.241c-0.048-0.802-0.09-1.606-0.11-2.411
	c-0.002-0.177,0-0.351-0.002-0.526c-0.016-1.866,0.103-3.718,0.564-5.491l0.198-0.58c0.021-0.054,0.015-0.113-0.015-0.162
	c-0.03-0.047-0.079-0.084-0.135-0.095l-0.586-0.113c-1.765-0.486-3.415-1.304-5.013-2.238c-0.151-0.09-0.305-0.178-0.454-0.268
	c-0.687-0.417-1.361-0.854-2.029-1.296c-0.069-0.048-0.142-0.095-0.212-0.14l-0.209-0.139c-0.227-0.151-0.453-0.301-0.675-0.451
	c-2.233-1.499-4.544-3.046-7.062-4.049c-1.503-0.599-3.094-0.996-4.738-1.215c0.778-0.952,1.581-1.914,2.438-2.891
	c3.707-4.224,8.793-9.482,15.303-12.708c3.885-1.929,7.944-2.908,11.793-2.908c2.633,0,5.173,0.458,7.494,1.384
	c2.338,0.931,4.5,2.346,6.6,3.748c0.109,0.074,0.224,0.147,0.329,0.222C237.901,89.328,237.92,89.341,237.938,89.354
	 M210.913,163.966c0.753,1.639,1.292,3.334,1.541,5.062c0.349,2.373,0.208,4.846,0.049,7.252c-0.006,0.083-0.011,0.167-0.016,0.248
	l-0.01,0.15c-0.001,0.034-0.003,0.063-0.006,0.097c-0.054,0.778-0.105,1.563-0.14,2.353c-0.009,0.169-0.011,0.337-0.019,0.505
	c-0.075,2.158-0.008,4.319,0.532,6.404l0.118,0.338l-0.365,0.07c-2.08,0.572-3.997,1.604-5.831,2.763
	c-0.146,0.09-0.288,0.176-0.431,0.27c-0.666,0.421-1.322,0.862-1.974,1.294c-0.013,0.009-0.028,0.019-0.039,0.028
	c-0.052,0.037-0.108,0.074-0.163,0.107c-0.072,0.047-0.141,0.094-0.211,0.14c-1.985,1.334-4.045,2.679-6.259,3.563
	c-1.654,0.657-3.429,1.035-5.263,1.199c-0.159,0.012-0.317,0.027-0.474,0.039c-1.325,0.087-2.679,0.047-4.056-0.117
	c-0.072-0.01-0.146-0.019-0.222-0.031c-0.076-0.009-0.151-0.018-0.229-0.027c-0.737-0.104-1.474-0.245-2.215-0.417
	c-0.159-0.038-0.314-0.071-0.472-0.107c-1.809-0.46-3.614-1.108-5.388-1.986c-1.967-0.978-3.782-2.16-5.48-3.432
	c-0.077-0.055-0.155-0.114-0.23-0.173c-0.072-0.055-0.142-0.104-0.21-0.157c-0.3-0.232-0.598-0.466-0.889-0.705
	c-0.161-0.129-0.316-0.262-0.47-0.391c-2.839-2.371-5.264-4.945-7.252-7.211c-1.249-1.423-2.604-3.027-3.953-4.758
	c-0.074-0.095-0.148-0.187-0.224-0.284c-0.076-0.104-0.152-0.2-0.234-0.305c-0.98-1.28-1.955-2.63-2.882-4.052
	c-0.198-0.306-0.383-0.626-0.578-0.933c-1.186-1.897-2.293-3.893-3.207-5.989c-0.742-1.698-1.489-3.527-2.023-5.387
	c-0.018-0.059-0.038-0.117-0.057-0.173c-0.055-0.205-0.101-0.408-0.149-0.613c-0.058-0.221-0.113-0.441-0.164-0.662
	c0,0,0-0.004,0-0.006c-0.136-0.617-0.245-1.238-0.313-1.858c-0.021-0.187-0.024-0.371-0.037-0.557
	c-0.004-0.033-0.005-0.063-0.008-0.094c-0.008-0.157-0.028-0.317-0.03-0.479c-0.007-0.183,0-0.361,0.001-0.548
	c0.001-0.123,0.011-0.25,0.018-0.373v-0.003c0.006-0.13,0.009-0.259,0.017-0.393c0.003-0.028,0.003-0.06,0.005-0.087
	c0.006-0.074,0.001-0.152,0.011-0.231c0.001-0.002,0-0.006,0.001-0.009c0.016-0.158,0.069-0.302,0.1-0.458
	c0.023-0.128,0.049-0.259,0.084-0.389c0.019-0.067,0.026-0.143,0.048-0.212c0.008-0.025,0.008-0.057,0.015-0.079
	c0.023-0.07,0.061-0.134,0.088-0.205c0.006-0.016,0.016-0.033,0.021-0.049c0.079,0.062,0.14,0.139,0.221,0.199
	c0.13,0.093,0.273,0.171,0.411,0.26c0.168,0.117,0.343,0.231,0.521,0.337c0.006,0.003,0.016,0.01,0.021,0.016
	c0.029,0.019,0.057,0.038,0.083,0.054c0.086,0.047,0.164,0.113,0.251,0.162c0.013,0.006,0.023,0.012,0.037,0.02
	c0.049,0.023,0.102,0.049,0.151,0.074c0.029,0.015,0.062,0.03,0.095,0.044c0.134,0.072,0.273,0.137,0.408,0.205
	c0.121,0.057,0.239,0.117,0.358,0.176c0.029,0.012,0.06,0.027,0.087,0.039c0.159,0.071,0.315,0.146,0.476,0.215
	c0.208,0.09,0.418,0.163,0.629,0.24c0.813,0.307,1.646,0.564,2.503,0.778c0.115,0.027,0.237,0.052,0.353,0.079
	c0.113,0.027,0.225,0.052,0.337,0.077c0.957,0.213,1.92,0.382,2.874,0.521c0.123,0.018,0.246,0.037,0.369,0.055
	c0.123,0.017,0.242,0.035,0.363,0.054c0.592,0.077,1.18,0.151,1.756,0.217c0.027,0.003,0.056,0.003,0.083,0.007
	c0.566,0.064,1.136,0.098,1.701,0.138c1.157,0.083,2.309,0.136,3.457,0.136c2.102,0,4.18-0.124,6.183-0.326
	c0.277-0.029,0.547-0.066,0.821-0.094c1.428-0.161,2.813-0.354,4.145-0.572c0.112-0.018,0.224-0.037,0.333-0.055
	c0.113-0.02,0.233-0.035,0.346-0.057c1.316-0.219,2.58-0.455,3.763-0.692c3.521-0.705,7.688-1.686,11.826-3.347
	c1.945,0.83,3.87,1.81,5.697,3.022c1.687,1.122,3.187,2.408,4.513,3.781c0.111,0.115,0.218,0.233,0.324,0.344
	c0.518,0.557,0.995,1.13,1.451,1.719c0.046,0.059,0.091,0.117,0.135,0.176c0.046,0.062,0.092,0.12,0.139,0.18
	c0.819,1.106,1.522,2.262,2.102,3.457C210.781,163.686,210.847,163.828,210.913,163.966 M172.658,197.019
	c-0.13,2.024-0.489,3.954-1.018,5.79c-0.043,0.155-0.092,0.308-0.139,0.462c-0.224,0.719-0.477,1.423-0.757,2.108
	c-0.031,0.07-0.059,0.145-0.088,0.216c-0.029,0.065-0.056,0.134-0.085,0.201c-0.547,1.259-1.195,2.438-1.93,3.531
	c-0.089,0.132-0.18,0.261-0.269,0.388c-1.048,1.48-2.251,2.802-3.621,3.886c-1.889,1.492-4.097,2.605-6.262,3.664
	c-0.073,0.037-0.147,0.074-0.218,0.111c-0.047,0.021-0.094,0.047-0.14,0.068c-0.029,0.017-0.059,0.028-0.087,0.044
	c-0.701,0.346-1.406,0.697-2.104,1.06c-0.154,0.078-0.303,0.165-0.453,0.248c-1.901,1.01-3.742,2.141-5.273,3.649l-0.234,0.268
	l-0.245-0.277c-1.534-1.515-3.39-2.646-5.303-3.661c-0.152-0.08-0.3-0.168-0.454-0.247c-0.704-0.367-1.413-0.715-2.115-1.063
	c-0.013-0.004-0.023-0.01-0.034-0.017c-0.062-0.031-0.12-0.059-0.181-0.09c-0.076-0.037-0.155-0.078-0.234-0.118
	c-2.144-1.052-4.332-2.159-6.203-3.64c-1.396-1.102-2.612-2.445-3.669-3.956c-0.091-0.127-0.181-0.257-0.271-0.39
	c-0.739-1.104-1.383-2.296-1.926-3.569c-0.027-0.068-0.057-0.138-0.085-0.205c-0.029-0.07-0.061-0.142-0.09-0.212
	c-0.279-0.693-0.528-1.403-0.75-2.129c-0.045-0.154-0.097-0.307-0.139-0.464c-0.506-1.796-0.851-3.68-0.974-5.657
	c-0.14-2.189-0.023-4.357,0.23-6.462c0.013-0.094,0.022-0.192,0.035-0.286c0.011-0.09,0.019-0.181,0.031-0.266
	c0.049-0.378,0.103-0.748,0.163-1.119c0.03-0.204,0.07-0.401,0.105-0.604c0.635-3.645,1.654-7.026,2.621-9.886
	c0.608-1.788,1.314-3.762,2.142-5.797c0.047-0.114,0.087-0.226,0.135-0.339c0.049-0.117,0.095-0.234,0.144-0.355
	c0.62-1.487,1.305-3.008,2.071-4.517c0.164-0.329,0.348-0.65,0.519-0.971c1.049-1.977,2.226-3.931,3.586-5.769
	c1.097-1.489,2.301-3.048,3.641-4.443c0.047-0.047,0.089-0.096,0.135-0.146c0.146-0.148,0.301-0.285,0.45-0.434
	c0.127-0.121,0.254-0.246,0.382-0.366c0.039-0.037,0.077-0.074,0.114-0.111c0.47-0.423,0.951-0.825,1.453-1.196
	c0.16-0.117,0.326-0.218,0.488-0.328c0.019-0.012,0.036-0.024,0.053-0.037c0.135-0.089,0.263-0.183,0.397-0.265
	c0.157-0.096,0.318-0.182,0.476-0.275c0.11-0.058,0.222-0.114,0.333-0.169c0-0.004,0.003-0.004,0.003-0.004
	c0.115-0.059,0.231-0.121,0.347-0.179c0.027-0.012,0.053-0.027,0.08-0.043c0.068-0.031,0.133-0.074,0.203-0.105
	c0.003,0,0.007-0.003,0.009-0.003c0.146-0.064,0.3-0.096,0.449-0.145c0.125-0.047,0.25-0.09,0.379-0.124
	c0.065-0.018,0.128-0.049,0.192-0.061c0.031-0.01,0.061-0.025,0.093-0.031c0.072-0.013,0.145-0.01,0.217-0.021
	c0.02-0.004,0.037-0.004,0.054-0.006c-0.014,0.097-0.051,0.189-0.062,0.288c-0.017,0.16-0.011,0.329-0.021,0.487
	c-0.014,0.208-0.024,0.413-0.028,0.624c-0.001,0.009-0.001,0.019-0.001,0.03c-0.003,0.047-0.009,0.097-0.009,0.147
	c0,0.082-0.011,0.165-0.011,0.252v0.037c0.001,0.053,0.009,0.107,0.011,0.164c0.001,0.037,0.006,0.07,0.009,0.105
	c0.005,0.152,0.02,0.306,0.029,0.46c0.009,0.131,0.014,0.264,0.026,0.396c0.003,0.035,0.003,0.063,0.006,0.094
	c0.018,0.172,0.029,0.347,0.053,0.519c0.028,0.223,0.071,0.441,0.106,0.665c0.143,0.854,0.335,1.708,0.58,2.557
	c0.033,0.115,0.071,0.233,0.106,0.348c0.033,0.11,0.067,0.222,0.103,0.33c0.294,0.937,0.628,1.851,0.984,2.75
	c0.049,0.113,0.095,0.231,0.142,0.345c0.046,0.116,0.089,0.23,0.137,0.344c0.228,0.55,0.457,1.097,0.687,1.623
	c0.003,0.01,0.009,0.02,0.013,0.025c0.219,0.509,0.469,1.003,0.713,1.506c1.444,2.984,3.19,5.785,5.025,8.334
	c0.162,0.223,0.324,0.437,0.483,0.655c0.857,1.16,1.722,2.278,2.574,3.324c0.069,0.087,0.142,0.171,0.212,0.257
	c0.073,0.086,0.145,0.176,0.219,0.262c0.852,1.033,1.692,2.018,2.488,2.922c2.365,2.699,5.306,5.817,8.811,8.571
	C172.68,192.677,172.795,194.831,172.658,197.019 M95.783,190.852c-0.042-0.031-0.086-0.06-0.128-0.088
	c-0.025-0.018-0.053-0.032-0.079-0.05c-0.649-0.434-1.305-0.868-1.973-1.294c-0.144-0.092-0.293-0.179-0.436-0.266
	c-1.827-1.144-3.728-2.175-5.8-2.749l-0.351-0.065l0.12-0.351c0.542-2.089,0.606-4.262,0.527-6.432
	c-0.008-0.17-0.012-0.336-0.02-0.507c-0.036-0.791-0.089-1.578-0.139-2.357c-0.002-0.016-0.004-0.03-0.004-0.046
	c-0.004-0.065-0.01-0.134-0.013-0.198c-0.006-0.084-0.011-0.17-0.016-0.251c-0.158-2.393-0.295-4.844,0.049-7.204
	c0.256-1.76,0.818-3.484,1.592-5.154c0.066-0.143,0.133-0.288,0.202-0.43c0.589-1.192,1.301-2.347,2.131-3.455
	c0.043-0.058,0.089-0.116,0.135-0.175c0.048-0.063,0.094-0.124,0.141-0.183c0.457-0.591,0.948-1.162,1.47-1.713
	c0.109-0.12,0.214-0.241,0.328-0.356c1.303-1.333,2.767-2.577,4.414-3.673c1.827-1.216,3.762-2.196,5.712-3.028
	c0.087-0.039,0.177-0.077,0.264-0.113c0.082-0.036,0.164-0.073,0.246-0.107c0.352-0.145,0.7-0.284,1.054-0.418
	c0.19-0.074,0.382-0.14,0.574-0.21c3.47-1.27,6.91-2.083,9.87-2.671c1.854-0.372,3.916-0.742,6.095-1.046
	c0.12-0.016,0.237-0.035,0.359-0.052c0.125-0.016,0.249-0.037,0.379-0.053c1.594-0.208,3.252-0.374,4.945-0.467
	c0.363-0.021,0.735-0.022,1.101-0.036c2.236-0.08,4.518-0.04,6.794,0.219c1.834,0.207,3.785,0.471,5.663,0.934
	c0.063,0.016,0.128,0.028,0.191,0.044c0.203,0.052,0.402,0.115,0.605,0.173c0.169,0.047,0.338,0.097,0.506,0.148
	c0.05,0.016,0.103,0.029,0.154,0.045c0.601,0.193,1.193,0.408,1.763,0.658c0.172,0.076,0.333,0.167,0.501,0.248
	c0.028,0.013,0.055,0.027,0.083,0.04c0.142,0.072,0.29,0.136,0.43,0.21c0.162,0.089,0.317,0.184,0.474,0.277
	c0.109,0.064,0.213,0.136,0.316,0.204c0.002,0,0.002,0.002,0.003,0.002c0.111,0.071,0.223,0.135,0.33,0.208
	c0.023,0.017,0.051,0.031,0.074,0.048c0.062,0.043,0.13,0.075,0.192,0.121c0.002,0.001,0.006,0.004,0.011,0.006
	c0.127,0.094,0.226,0.213,0.343,0.315c0.103,0.086,0.201,0.173,0.297,0.267c0.049,0.049,0.107,0.09,0.154,0.141
	c0.02,0.024,0.051,0.041,0.072,0.065c0.048,0.056,0.086,0.119,0.134,0.175c0.01,0.013,0.019,0.031,0.029,0.045
	c-0.092,0.036-0.191,0.049-0.285,0.089c-0.146,0.065-0.284,0.151-0.429,0.222c-0.188,0.091-0.372,0.188-0.556,0.289
	c-0.009,0.004-0.019,0.008-0.026,0.012c-0.042,0.024-0.085,0.044-0.125,0.067c-0.075,0.043-0.155,0.075-0.225,0.118
	c-0.013,0.007-0.025,0.013-0.035,0.022c-0.051,0.027-0.095,0.065-0.146,0.096c-0.025,0.018-0.053,0.037-0.082,0.055
	c-0.128,0.079-0.253,0.17-0.381,0.255c-0.11,0.074-0.223,0.145-0.335,0.222c-0.024,0.019-0.049,0.033-0.073,0.053
	c-0.143,0.099-0.286,0.198-0.423,0.303c-0.176,0.133-0.347,0.28-0.52,0.422c-0.671,0.554-1.315,1.146-1.927,1.783
	c-0.085,0.089-0.163,0.174-0.248,0.264c-0.076,0.089-0.157,0.172-0.234,0.256c-0.661,0.723-1.291,1.471-1.89,2.223
	c-0.079,0.103-0.154,0.198-0.232,0.299c-0.073,0.095-0.151,0.189-0.225,0.285c-0.364,0.471-0.721,0.944-1.064,1.41
	c-0.017,0.025-0.032,0.047-0.047,0.07c-0.333,0.456-0.644,0.925-0.959,1.393c-1.844,2.721-3.381,5.607-4.662,8.452
	c-0.112,0.254-0.217,0.497-0.326,0.747c-0.573,1.321-1.111,2.628-1.591,3.892c-0.041,0.104-0.076,0.206-0.116,0.312
	c-0.041,0.105-0.078,0.214-0.117,0.321c-0.466,1.251-0.9,2.476-1.287,3.613c-1.153,3.402-2.387,7.502-3.018,11.92
	c-1.688,1.264-3.5,2.443-5.463,3.414c-1.813,0.904-3.669,1.558-5.521,2.018c-0.154,0.04-0.311,0.073-0.466,0.107
	c-0.737,0.17-1.474,0.303-2.202,0.403c-0.08,0.012-0.157,0.021-0.236,0.029c-0.07,0.007-0.142,0.022-0.213,0.028
	c-1.366,0.157-2.711,0.188-4.027,0.097c-0.159-0.014-0.314-0.025-0.471-0.041c-1.803-0.166-3.551-0.547-5.178-1.191
	c-2.233-0.888-4.302-2.248-6.304-3.589C95.921,190.941,95.852,190.896,95.783,190.852 M93.111,141.974
	c-0.514-0.554-0.997-1.123-1.445-1.707c-0.046-0.059-0.094-0.119-0.139-0.18s-0.094-0.121-0.139-0.18
	c-0.819-1.108-1.519-2.26-2.098-3.453c-0.07-0.14-0.137-0.282-0.203-0.424c-0.749-1.643-1.293-3.335-1.545-5.059
	c-0.348-2.379-0.205-4.849-0.046-7.257c0.006-0.079,0.01-0.162,0.016-0.242c0.003-0.052,0.005-0.105,0.009-0.156
	c0.002-0.031,0.003-0.063,0.007-0.095c0.051-0.779,0.104-1.566,0.14-2.354c0.006-0.169,0.011-0.338,0.017-0.507
	c0.076-2.153,0.01-4.317-0.532-6.402l-0.115-0.336l0.363-0.07c2.081-0.575,3.996-1.606,5.834-2.76
	c0.142-0.091,0.287-0.178,0.43-0.271c0.665-0.424,1.322-0.863,1.972-1.299c0.013-0.008,0.027-0.018,0.04-0.026
	c0.055-0.036,0.111-0.073,0.164-0.11c0.069-0.046,0.139-0.091,0.21-0.137c1.991-1.333,4.045-2.679,6.263-3.56
	c1.652-0.66,3.43-1.036,5.262-1.201c0.156-0.013,0.314-0.029,0.471-0.038c1.327-0.087,2.684-0.048,4.058,0.116
	c0.074,0.009,0.147,0.02,0.221,0.029c0.076,0.012,0.152,0.019,0.227,0.031c0.737,0.103,1.479,0.24,2.219,0.415
	c0.157,0.036,0.314,0.069,0.471,0.11c1.809,0.46,3.619,1.107,5.39,1.985c1.968,0.975,3.781,2.159,5.478,3.433
	c0.629,4.417,1.865,8.529,3.021,11.934c0.378,1.113,0.763,2.182,1.157,3.226c0.039,0.106,0.079,0.212,0.12,0.318
	c0.042,0.111,0.082,0.221,0.123,0.331c0.537,1.391,1.09,2.72,1.655,3.995c0.117,0.265,0.236,0.524,0.354,0.783
	c1.071,2.326,2.2,4.47,3.41,6.451c0.341,0.565,0.723,1.168,1.124,1.789c0.286,0.441,0.577,0.888,0.891,1.342
	c0.374,0.546,0.769,1.1,1.181,1.655c0.079,0.101,0.16,0.2,0.239,0.302c0.076,0.099,0.158,0.197,0.235,0.298
	c0.643,0.826,1.323,1.641,2.049,2.419c-0.955-0.212-1.918-0.383-2.876-0.52c-0.123-0.018-0.247-0.036-0.37-0.052
	c-0.121-0.018-0.242-0.036-0.361-0.053c-0.592-0.078-1.179-0.15-1.752-0.215c-0.029-0.003-0.055-0.003-0.08-0.006
	c-0.561-0.063-1.125-0.096-1.686-0.135c-3.275-0.237-6.544-0.124-9.646,0.191c-0.277,0.026-0.546,0.062-0.821,0.093
	c-1.428,0.159-2.827,0.348-4.161,0.563c-0.112,0.019-0.217,0.038-0.327,0.056c-0.117,0.019-0.229,0.04-0.343,0.059
	c-1.314,0.222-2.586,0.456-3.769,0.692c-3.52,0.703-7.689,1.686-11.827,3.346c-1.943-0.831-3.87-1.808-5.693-3.021
	c-1.689-1.125-3.186-2.405-4.515-3.78C93.328,142.213,93.219,142.092,93.111,141.974 M127.348,102.979
	c0.128-2.022,0.486-3.956,1.015-5.789c0.044-0.155,0.09-0.307,0.137-0.46c0.224-0.723,0.477-1.425,0.759-2.108
	c0.03-0.073,0.06-0.146,0.09-0.217c0.028-0.066,0.054-0.134,0.084-0.201c0.545-1.259,1.189-2.441,1.929-3.534
	c0.089-0.131,0.178-0.259,0.271-0.39c1.046-1.478,2.245-2.802,3.62-3.886c1.887-1.489,4.098-2.602,6.257-3.667
	c0.076-0.037,0.148-0.074,0.222-0.11c0.045-0.023,0.092-0.045,0.137-0.068c0.03-0.015,0.059-0.029,0.089-0.042
	c0.7-0.344,1.404-0.694,2.106-1.058c0.151-0.081,0.3-0.168,0.449-0.249c1.902-1.007,3.744-2.139,5.277-3.648l0.231-0.268
	l0.244,0.278c1.536,1.512,3.39,2.647,5.304,3.661c0.154,0.08,0.301,0.168,0.454,0.25c0.702,0.363,1.409,0.713,2.114,1.058
	l0.037,0.018c0.058,0.029,0.116,0.059,0.177,0.087c0.077,0.038,0.155,0.079,0.233,0.117c2.147,1.058,4.336,2.164,6.21,3.64
	c1.389,1.102,2.608,2.45,3.667,3.956c0.091,0.129,0.181,0.26,0.27,0.391c0.737,1.104,1.381,2.3,1.928,3.571
	c0.026,0.068,0.055,0.137,0.082,0.208c0.031,0.069,0.058,0.14,0.089,0.211c0.28,0.688,0.529,1.4,0.751,2.129
	c0.046,0.154,0.098,0.307,0.138,0.462c0.506,1.796,0.854,3.685,0.98,5.658c0.135,2.193,0.02,4.358-0.234,6.463
	c-0.013,0.095-0.022,0.191-0.034,0.287c-0.013,0.087-0.021,0.177-0.032,0.265c-0.052,0.374-0.105,0.748-0.164,1.118
	c-0.033,0.205-0.069,0.404-0.105,0.604c-0.636,3.64-1.653,7.029-2.623,9.883c-0.603,1.792-1.315,3.762-2.141,5.799
	c-0.046,0.112-0.089,0.225-0.133,0.338c-0.051,0.12-0.095,0.236-0.145,0.354c-0.621,1.49-1.308,3.01-2.078,4.522
	c-0.159,0.325-0.341,0.646-0.513,0.968c-1.05,1.978-2.229,3.934-3.588,5.773c-1.096,1.484-2.302,3.043-3.64,4.439
	c-0.045,0.047-0.089,0.099-0.135,0.146c-0.146,0.15-0.3,0.289-0.45,0.435c-0.127,0.123-0.254,0.244-0.376,0.362
	c-0.041,0.036-0.078,0.075-0.118,0.11c-0.467,0.429-0.952,0.832-1.453,1.199c-0.161,0.118-0.329,0.22-0.489,0.329
	c-0.018,0.013-0.036,0.024-0.051,0.035c-0.134,0.089-0.265,0.184-0.399,0.268c-0.157,0.096-0.318,0.182-0.478,0.272
	c-0.108,0.061-0.225,0.114-0.334,0.173h-0.001c-0.119,0.062-0.231,0.124-0.35,0.182c-0.026,0.013-0.05,0.027-0.076,0.041
	c-0.072,0.031-0.134,0.073-0.205,0.104c-0.003,0.003-0.006,0.004-0.011,0.006c-0.145,0.066-0.29,0.09-0.437,0.139
	c-0.126,0.042-0.25,0.085-0.373,0.117c-0.071,0.019-0.137,0.05-0.211,0.067c-0.026,0.004-0.052,0.019-0.079,0.025
	c-0.075,0.015-0.15,0.019-0.226,0.031c-0.019,0.003-0.037,0.003-0.056,0.006c-0.011,0.003-0.022,0.003-0.035,0.004
	c-0.043,0.006-0.086,0.006-0.132,0.013c-0.012,0.001-0.025,0.001-0.038,0.003c-0.069,0.008-0.135,0.014-0.205,0.019
	c-0.032,0.003-0.068,0.008-0.101,0.011c-0.069,0.005-0.136,0.018-0.205,0.021c-0.068,0.002-0.137,0.019-0.205,0.019h-0.003
	c-0.012,0-0.022,0.003-0.033,0.003c-0.055,0-0.108-0.011-0.164-0.014c-0.068-0.003-0.137-0.01-0.205-0.016
	c-0.033-0.003-0.067-0.005-0.101-0.008c-0.076-0.01-0.152-0.01-0.227-0.019c-0.005-0.002-0.011,0-0.016-0.002
	c-0.057-0.008-0.115-0.027-0.172-0.037c-0.011-0.001-0.021-0.004-0.033-0.006c-0.001-0.001-0.002-0.001-0.006-0.001
	c-0.073-0.014-0.143-0.03-0.216-0.047c-0.041-0.008-0.084-0.016-0.125-0.025c-0.033-0.01-0.066-0.013-0.099-0.023
	c-0.139-0.037-0.276-0.086-0.412-0.132c-0.146-0.051-0.295-0.102-0.438-0.164c-0.107-0.045-0.21-0.1-0.316-0.151
	c-0.012-0.005-0.024-0.012-0.037-0.018c-0.025-0.013-0.052-0.024-0.078-0.038c-0.05-0.025-0.1-0.043-0.149-0.071
	c-0.042-0.022-0.079-0.054-0.12-0.075c-0.016-0.01-0.029-0.021-0.047-0.03c-0.046-0.027-0.091-0.061-0.139-0.088
	c-0.036-0.023-0.073-0.05-0.111-0.073c-0.159-0.094-0.315-0.197-0.472-0.298c-0.134-0.085-0.268-0.163-0.396-0.253
	c-0.009-0.005-0.016-0.011-0.026-0.016c-0.179-0.125-0.359-0.245-0.538-0.375c-0.551-0.413-1.084-0.862-1.599-1.337
	c-0.035-0.031-0.068-0.066-0.104-0.099c-0.154-0.143-0.308-0.293-0.456-0.442c-0.153-0.151-0.313-0.293-0.461-0.446
	c-0.064-0.069-0.137-0.134-0.203-0.205c-2.3-2.426-4.176-5.274-5.561-7.55c-0.495-0.81-0.963-1.67-1.431-2.536
	c-0.17-0.312-0.34-0.622-0.505-0.943c-0.744-1.441-1.452-2.99-2.137-4.606c-0.052-0.118-0.1-0.238-0.15-0.355
	c-0.049-0.119-0.101-0.238-0.15-0.358c-0.716-1.73-1.409-3.524-2.07-5.471c-0.969-2.859-1.988-6.254-2.623-9.903
	c-0.035-0.2-0.073-0.4-0.105-0.602c-0.062-0.372-0.114-0.744-0.163-1.12c-0.013-0.087-0.021-0.177-0.03-0.266
	c-0.013-0.096-0.024-0.191-0.035-0.286C127.326,107.322,127.207,105.166,127.348,102.979 M204.216,109.145
	c0.043,0.028,0.087,0.057,0.129,0.086c0.026,0.017,0.053,0.035,0.078,0.052c0.65,0.436,1.31,0.872,1.972,1.295
	c0.146,0.092,0.295,0.175,0.44,0.266c1.824,1.143,3.725,2.171,5.798,2.746l0.35,0.067l-0.121,0.352
	c-0.544,2.088-0.605,4.263-0.527,6.433c0.006,0.167,0.01,0.336,0.017,0.505c0.037,0.789,0.09,1.578,0.144,2.359
	c0,0.016,0.003,0.032,0.003,0.047c0.003,0.065,0.01,0.132,0.012,0.196c0.007,0.083,0.01,0.167,0.016,0.25
	c0.16,2.389,0.295,4.843-0.048,7.207c-0.256,1.759-0.814,3.483-1.588,5.154c-0.068,0.144-0.134,0.289-0.205,0.431
	c-0.587,1.192-1.3,2.343-2.127,3.451c-0.046,0.06-0.094,0.119-0.137,0.179c-0.049,0.061-0.092,0.121-0.14,0.18
	c-0.459,0.588-0.946,1.16-1.469,1.717c-0.111,0.116-0.22,0.236-0.331,0.351c-1.303,1.335-2.767,2.577-4.412,3.672
	c-1.831,1.218-3.763,2.199-5.716,3.03c-0.09,0.036-0.174,0.075-0.262,0.113c-0.086,0.036-0.166,0.073-0.248,0.105
	c-0.35,0.146-0.701,0.286-1.05,0.421c-0.188,0.073-0.381,0.139-0.577,0.21c-3.471,1.272-6.913,2.083-9.87,2.67
	c-1.857,0.371-3.921,0.74-6.101,1.047c-0.12,0.016-0.236,0.035-0.358,0.051c-0.123,0.018-0.246,0.037-0.374,0.051
	c-1.599,0.21-3.258,0.377-4.944,0.47c-0.368,0.019-0.74,0.021-1.104,0.033c-2.235,0.081-4.517,0.04-6.791-0.216
	c-1.837-0.21-3.788-0.472-5.664-0.936c-0.066-0.019-0.13-0.027-0.191-0.043c-0.206-0.053-0.402-0.116-0.603-0.173
	c-0.173-0.049-0.342-0.1-0.509-0.152c-0.053-0.01-0.104-0.025-0.154-0.041c-0.604-0.196-1.192-0.409-1.76-0.66
	c-0.18-0.075-0.349-0.168-0.524-0.254c-0.021-0.01-0.042-0.02-0.063-0.031c-0.142-0.068-0.291-0.133-0.428-0.208
	c-0.163-0.089-0.318-0.184-0.475-0.277c-0.107-0.064-0.212-0.133-0.318-0.201h-0.001c-0.111-0.072-0.222-0.138-0.331-0.214
	c-0.024-0.018-0.048-0.032-0.073-0.048c-0.063-0.045-0.131-0.079-0.194-0.123c-0.001-0.003-0.005-0.003-0.008-0.006
	c-0.128-0.094-0.228-0.212-0.349-0.315c-0.101-0.087-0.201-0.174-0.291-0.266c-0.048-0.05-0.109-0.091-0.153-0.142
	c-0.024-0.023-0.053-0.042-0.073-0.065c-0.05-0.055-0.087-0.118-0.133-0.174c-0.013-0.013-0.02-0.029-0.031-0.043
	c0.092-0.036,0.19-0.051,0.281-0.092c0.148-0.064,0.284-0.15,0.427-0.222c0.192-0.091,0.378-0.188,0.562-0.289
	c0.01-0.005,0.02-0.009,0.027-0.014c0.041-0.022,0.083-0.041,0.125-0.063c0.072-0.043,0.151-0.074,0.227-0.119
	c0.01-0.006,0.021-0.013,0.035-0.02c0.049-0.029,0.1-0.067,0.15-0.099c0.026-0.016,0.051-0.037,0.079-0.053
	c0.125-0.08,0.251-0.171,0.378-0.254c0.113-0.075,0.224-0.148,0.332-0.225c0.025-0.018,0.053-0.034,0.079-0.051
	c0.143-0.102,0.284-0.199,0.422-0.305c0.176-0.136,0.348-0.282,0.521-0.424c0.669-0.553,1.312-1.145,1.923-1.78
	c0.082-0.088,0.164-0.178,0.248-0.267c0.079-0.084,0.155-0.168,0.234-0.254c0.661-0.721,1.293-1.469,1.893-2.229
	c0.077-0.099,0.153-0.196,0.232-0.293c0.072-0.094,0.146-0.19,0.222-0.284c0.364-0.475,0.719-0.948,1.063-1.413
	c0.016-0.022,0.03-0.045,0.049-0.067c0.334-0.456,0.646-0.926,0.96-1.392c1.845-2.725,3.381-5.61,4.661-8.452
	c0.112-0.254,0.216-0.502,0.324-0.751c0.578-1.321,1.115-2.627,1.593-3.89c0.039-0.106,0.074-0.208,0.112-0.312
	c0.042-0.111,0.082-0.215,0.122-0.324c0.467-1.25,0.9-2.47,1.287-3.61c1.154-3.4,2.388-7.505,3.014-11.917
	c1.693-1.269,3.505-2.447,5.464-3.421c1.817-0.9,3.67-1.556,5.524-2.017c0.154-0.04,0.313-0.074,0.469-0.109
	c0.737-0.169,1.467-0.3,2.201-0.4c0.079-0.01,0.156-0.021,0.235-0.031c0.072-0.008,0.144-0.019,0.214-0.028
	c1.367-0.156,2.706-0.186,4.025-0.093c0.156,0.011,0.314,0.024,0.471,0.039c1.807,0.169,3.553,0.545,5.177,1.193
	c2.231,0.887,4.305,2.247,6.304,3.586C204.079,109.055,204.147,109.099,204.216,109.145 M208.191,60.62
	c-3.571,1.771-6.918,3.849-10.061,6.099c0.38-3.86,0.508-7.813,0.256-11.806c-0.74-11.669-4.757-22.163-11.249-29.866
	c0.295-0.051,0.59-0.116,0.888-0.158c5.044-0.731,10.282-0.382,15.352-0.045c6.188,0.41,12.592,0.84,18.635-0.727l0.888-0.305
	l0.184,0.932c1.658,6.005,5.228,11.335,8.684,16.492c2.827,4.222,5.751,8.585,7.636,13.315c0.115,0.289,0.21,0.587,0.317,0.882
	C229.795,53.65,218.68,55.417,208.191,60.62 M101.694,54.913c-0.253,3.978-0.126,7.917,0.248,11.764
	c-3.152-2.258-6.514-4.346-10.096-6.122c-10.476-5.196-21.572-6.966-31.489-5.196c0.105-0.284,0.197-0.568,0.308-0.847
	c1.883-4.729,4.806-9.09,7.634-13.312c3.456-5.157,7.03-10.489,8.689-16.508l0.181-0.918l0.901,0.307
	c6.026,1.568,12.434,1.139,18.626,0.723c5.069-0.335,10.308-0.686,15.347,0.045c0.31,0.046,0.613,0.112,0.922,0.165
	C106.458,32.721,102.433,43.229,101.694,54.913 M43.5,144.293c3.318,2.206,6.794,4.066,10.314,5.664
	c-3.533,1.606-7.021,3.466-10.352,5.682c-9.736,6.474-16.815,15.198-20.244,24.676c-0.192-0.232-0.395-0.454-0.581-0.692
	c-3.153-3.994-5.47-8.71-7.709-13.268c-2.74-5.571-5.57-11.333-9.95-15.776l-0.708-0.619l0.719-0.625
	c4.369-4.438,7.199-10.197,9.939-15.769c2.239-4.559,4.556-9.271,7.709-13.268c0.194-0.246,0.405-0.479,0.605-0.72
	C26.665,129.068,33.75,137.809,43.5,144.293 M67.954,245.252c7.795,0,16.001-1.981,23.854-5.875c3.568-1.768,6.92-3.85,10.062-6.096
	c-0.376,3.858-0.504,7.808-0.251,11.805c0.735,11.669,4.751,22.162,11.243,29.868c-0.295,0.051-0.588,0.115-0.886,0.155
	c-5.041,0.734-10.28,0.386-15.348,0.046c-6.192-0.415-12.597-0.84-18.639,0.729l-0.887,0.304l-0.185-0.935
	c-1.656-6.005-5.23-11.341-8.686-16.493c-2.829-4.221-5.75-8.582-7.634-13.312c-0.115-0.287-0.21-0.583-0.318-0.877
	C62.774,245.021,65.34,245.252,67.954,245.252 M198.308,245.086c0.254-3.981,0.127-7.915-0.247-11.765
	c3.152,2.259,6.51,4.348,10.094,6.122c7.854,3.893,16.062,5.873,23.854,5.873c2.6,0,5.154-0.229,7.632-0.674
	c-0.103,0.282-0.193,0.569-0.305,0.844c-1.883,4.733-4.808,9.093-7.634,13.315c-3.455,5.152-7.024,10.483-8.691,16.504l-0.179,0.92
	l-0.901-0.308c-3.248-0.843-6.6-1.109-9.978-1.109c-2.89,0-5.79,0.196-8.646,0.384c-5.064,0.343-10.305,0.692-15.347-0.043
	c-0.31-0.047-0.618-0.111-0.928-0.168C193.544,267.276,197.57,256.77,198.308,245.086 M256.502,155.705
	c-3.318-2.208-6.792-4.065-10.311-5.666c3.532-1.602,7.018-3.467,10.348-5.68c9.737-6.476,16.813-15.202,20.24-24.676
	c0.193,0.231,0.396,0.454,0.583,0.691c3.155,3.995,5.47,8.71,7.709,13.266c2.742,5.571,5.572,11.333,9.955,15.778l0.703,0.617
	l-0.713,0.627c-4.373,4.436-7.204,10.198-9.945,15.77c-2.239,4.555-4.554,9.27-7.709,13.264c-0.194,0.246-0.405,0.482-0.604,0.718
	C273.335,170.927,266.251,162.187,256.502,155.705"/>
</svg>
